<svg width="505" height="72" viewBox="0 0 505 72" fill="none" xmlns="http://www.w3.org/2000/svg">
<path d="M114.793 50.2072C117.592 50.2072 120.305 49.5266 122.632 48.2414L124.651 47.139C124.651 47.139 127.536 49.2726 130.528 51.4772C126.654 55.6375 120.939 57.9235 114.392 57.9235C108.134 57.9235 102.425 55.7137 98.3221 51.6905C94.2299 47.6826 91.9733 42.1354 91.9733 36.06C91.9733 30.015 94.24 24.5441 98.3475 20.6581C102.43 16.7923 108.15 14.6639 114.448 14.6639C120.259 14.6639 125.335 16.4317 129.138 19.7793L129.564 20.1602L123.053 24.9657C120.665 23.2488 117.891 22.375 114.793 22.375C106.603 22.375 100.665 28.232 100.665 36.2937C100.665 44.3553 106.608 50.2072 114.793 50.2072Z" fill="#333F48"/>
<path fill-rule="evenodd" clip-rule="evenodd" d="M147.298 31.6458H158.347C168.378 31.6458 173.905 36.0804 173.905 44.1217C173.905 52.539 167.81 57.3648 157.176 57.3648H138.216V15.2126H174.443L164.935 22.2329H147.298V31.6458ZM147.298 50.3496H156.765C162.369 50.3496 165.208 48.4802 165.214 44.5078C165.214 40.6218 162.526 38.666 156.765 38.666H147.298V50.3496Z" fill="#333F48"/>
<path d="M214.178 15.2181L204.67 22.2333H191.44V32.5402H210.831V39.5605H191.44V50.35H214.178V57.3703H182.358V15.2181H214.178Z" fill="#333F48"/>
<path fill-rule="evenodd" clip-rule="evenodd" d="M239.948 15.2181H222.626V57.3703H231.703V45.4277H239.948C251.003 45.4277 257.869 39.6062 257.869 30.3C257.874 20.9989 251.008 15.2181 239.948 15.2181ZM239.756 38.4125H231.708V22.2333H239.756C245.572 22.2333 248.777 25.1034 248.777 30.3203C248.777 35.5373 245.572 38.4125 239.756 38.4125Z" fill="#333F48"/>
<path fill-rule="evenodd" clip-rule="evenodd" d="M331.433 57.0759V44.0564H337.878C344.034 44.0564 348.704 42.8423 351.884 40.4142C355.058 37.986 356.651 34.3235 356.651 29.4266C356.651 24.7329 355.17 21.1973 352.209 18.8301C349.247 16.4629 344.47 15.2794 337.873 15.2794H323.984V57.0759H331.433ZM331.433 37.1936V22.1523H338.527C342.183 22.1523 344.825 22.6857 346.453 23.7626C348.081 24.8345 348.897 26.6683 348.897 29.2539C348.897 32.1189 348.025 34.161 346.275 35.375C344.526 36.5891 341.899 37.1936 338.405 37.1936H331.433Z" fill="#21BA72"/>
<path fill-rule="evenodd" clip-rule="evenodd" d="M280.146 45.4899C279.649 47.2018 279.106 48.7765 278.508 50.209H273.974V64.8388H280.947V57.0769H310.095V64.8388H317.067V50.209H312.24V15.2803H282.914L282.798 23.9363C282.757 27.1213 282.62 30.0168 282.382 32.6227C282.144 35.2338 281.834 37.6009 281.459 39.7294C281.079 41.8578 280.643 43.778 280.146 45.4899ZM285.774 50.2141C288.158 43.6459 289.471 34.9493 289.709 24.1192V22.1482H304.79V50.2141H285.774Z" fill="#21BA72"/>
<path d="M374.77 50.5077C375.566 50.5077 376.281 50.33 376.915 49.9693C377.549 49.6086 378.106 48.9533 378.583 47.9983L360.343 15.2794H368.984L382.396 39.5201L393.365 15.2794H401.174L385.855 48.359C385.018 50.1928 384.186 51.6913 383.35 52.8648C382.513 54.0382 381.661 54.978 380.789 55.6739C379.917 56.3698 379.009 56.8575 378.076 57.1369C377.143 57.4163 376.139 57.5534 375.064 57.5534C374.11 57.5534 373.208 57.4518 372.351 57.2537C371.494 57.0556 370.789 56.8372 370.236 56.5984V48.8365C370.794 49.3546 371.468 49.761 372.265 50.0607C373.061 50.3604 373.892 50.5077 374.77 50.5077Z" fill="#21BA72"/>
<path d="M414.825 22.1472H435.687V15.2794H407.376V57.0759H414.825V22.1472Z" fill="#21BA72"/>
<path d="M63.8408 14.3399C65.5076 16.4889 66.9317 18.8359 68.0686 21.3415L35.925 44.9918L22.4971 36.587V26.4762L35.925 34.8809L63.8408 14.3399Z" fill="#333F48"/>
<path d="M8.79829 35.8715C8.79829 35.417 8.80996 34.9672 8.83332 34.5174L0.69528 34.1118C0.667267 34.6945 0.650925 35.2818 0.650925 35.8715C0.650925 45.5977 4.59855 54.4033 10.9834 60.7756L16.7542 55.014C11.8401 50.1101 8.79829 43.3393 8.79829 35.8715Z" fill="#333F48"/>
<path d="M35.925 8.78809C36.3802 8.78809 36.8308 8.8044 37.2813 8.82538L37.6876 0.695713C37.1039 0.667744 36.5157 0.651428 35.925 0.651428C26.1832 0.651428 17.3635 4.59273 10.981 10.9673L16.7518 16.729C21.6636 11.8251 28.4477 8.78809 35.925 8.78809Z" fill="#333F48"/>
<path d="M35.9251 62.9572C35.4699 62.9572 35.0192 62.9455 34.5687 62.9222L34.1626 71.0472C34.7462 71.0751 35.3345 71.0915 35.9251 71.0915C45.6669 71.0915 54.4866 67.1502 60.8691 60.7755L55.0982 55.0139C50.1864 59.9178 43.4047 62.9572 35.9251 62.9572Z" fill="#333F48"/>
<path d="M51.2182 13.5149L58.0793 8.46645C52.0236 3.58119 44.3174 0.651428 35.925 0.651428V8.78809C41.5955 8.78809 46.8621 10.5338 51.2182 13.5149Z" fill="#333F48"/>
<path d="M71.2016 35.8715C71.2016 33.7178 71.0079 31.6086 70.6366 29.5621L63.0426 35.1489C63.0495 35.389 63.0519 35.629 63.0519 35.8715C63.0519 43.824 59.6014 50.9864 54.1154 55.9463L59.5899 61.9875C66.7216 55.5454 71.2016 46.2317 71.2016 35.8715Z" fill="#333F48"/>
<path d="M35.9251 62.9571C27.9598 62.9571 20.7859 59.5123 15.8181 54.035L9.76716 59.5006C16.2221 66.6187 25.5506 71.0915 35.9251 71.0915V62.9571Z" fill="#333F48"/>
<path d="M17.7348 15.7968L12.2603 9.75543C5.13081 16.2 0.650925 25.5136 0.650925 35.8715H8.80062C8.7983 27.919 12.2487 20.7566 17.7348 15.7968Z" fill="#333F48"/>
</svg>
