<svg width="504" height="70" viewBox="0 0 504 70" fill="none" xmlns="http://www.w3.org/2000/svg">
<path d="M110.751 30.8304C105.866 29.6801 101.645 28.6849 101.645 25.2825C101.645 20.7207 107.265 20.2277 109.681 20.2277C113.03 20.2277 114.934 20.6883 117.429 21.82C118.64 20.929 124.163 16.8624 124.163 16.8624C120.524 14.5456 115.057 12.7333 109.741 12.7333C97.0726 12.7333 92.5579 19.4662 92.5579 25.7663C92.5579 34.8391 100.454 36.7301 107.42 38.3965C112.314 39.5677 116.539 40.5791 116.539 44.037C116.539 45.8122 115.481 48.7886 108.386 48.7886C103.677 48.7886 98.518 47.1361 94.8558 44.4675L91.7773 51.5035C95.509 54.4106 101.981 56.283 108.328 56.283C118.837 56.283 125.629 51.1911 125.629 43.3102C125.629 34.3346 117.725 32.4737 110.751 30.8304Z" fill="#333F48"/>
<path d="M164.118 33.8462L163.682 33.7027L164.085 33.4852C167.553 31.6058 169.462 28.347 169.462 24.3128C169.462 17.5197 163.699 13.4647 154.046 13.4647H134.093V55.5563H155.225C165.737 55.5563 171.526 51.5105 171.526 44.162C171.523 39.158 168.825 35.3993 164.118 33.8462ZM143.182 20.4707H152.867C158.973 20.4707 160.254 23.2829 160.254 25.6159C160.254 29.002 157.699 30.761 152.867 30.761H143.182V20.4707V20.4707ZM143.182 30.761H152.867H143.182ZM154.516 48.5456H143.182V37.7693H154.516C159.691 37.7693 162.316 39.5631 162.316 43.1575C162.316 46.7635 159.765 48.5456 154.516 48.5456Z" fill="#333F48"/>
<path d="M202.322 20.4707L211.837 13.4624H179.987V55.5539H211.837V48.5456H189.077V37.7693H208.493V30.761H189.077V20.4707H202.322Z" fill="#333F48"/>
<path d="M256.231 55.5539L246.977 41.8798C252.437 39.5005 255.585 34.809 255.585 28.5252C255.585 19.2347 248.71 13.4624 237.644 13.4624H220.304V55.5539H229.393V43.6319H237.644C237.904 43.6319 238.158 43.625 238.413 43.618L246.491 55.5539H256.231ZM229.391 20.4707H237.447C243.271 20.4707 246.479 23.3384 246.479 28.546C246.479 33.7536 243.271 36.6213 237.447 36.6213H229.391V20.4707Z" fill="#333F48"/>
<path d="M35.0284 34.0133L21.6948 25.6611V35.7088L35.0284 44.0609L66.9459 20.5585C65.817 18.0709 64.4029 15.7385 62.7478 13.6007L35.0284 34.0133Z" fill="#333F48"/>
<path d="M70.0567 35C70.0567 32.8598 69.8643 30.7637 69.4957 28.7301L61.955 34.282C61.962 34.5205 61.9643 34.7591 61.9643 35C61.9643 49.8399 49.8802 61.9142 35.0284 61.9142C20.1765 61.9142 8.09238 49.8399 8.09238 35C8.09238 20.1602 20.1765 8.08583 35.0284 8.08583C40.6566 8.08583 45.8885 9.82066 50.214 12.7831L57.0268 7.7662C51.0138 2.91146 43.3618 0 35.0284 0C15.6817 0 0 15.6691 0 35C0 54.331 15.6817 70 35.0284 70C54.375 70 70.0567 54.3286 70.0567 35Z" fill="#333F48"/>
<path d="M307.792 32.0128H287.308V20.2138H308.75V13.3261H279.822V55.2514H287.308V38.9005H307.792V32.0128Z" fill="#21BA72"/>
<path d="M343.013 55.2514H351.997L341.276 40.338C346.487 38.062 349.182 33.8096 349.182 27.5208C349.182 18.0577 343.552 13.3261 330.316 13.3261H317.08V55.2514H324.566V42.1946H330.316C331.634 42.1946 332.832 42.1348 334.029 42.015L343.013 55.2514ZM330.975 20.2138C338.282 20.2138 341.396 22.1903 341.396 27.3411C341.396 33.031 337.803 35.3069 330.855 35.3069H324.566V20.2138H330.975Z" fill="#21BA72"/>
<path d="M366.737 13.3261H359.251V55.2514H366.737V13.3261Z" fill="#21BA72"/>
<path d="M404.447 30.216H385.161V20.2138H406.663V13.3261H377.675V55.2514H407.322V48.3637H385.161V37.1037H404.447V30.216Z" fill="#21BA72"/>
<path d="M446.346 55.2514H454.731V13.3261H447.244V43.692L424.544 13.3261H416.219V55.2514H423.706V24.8855L446.346 55.2514Z" fill="#21BA72"/>
<path d="M465.643 13.3261V55.2514H479.898C493.553 55.2514 503.136 48.7829 503.136 33.4502C503.136 20.5732 495.59 13.3261 480.077 13.3261H465.643ZM473.13 48.3637V20.2138H479.957C490.559 20.2138 495.29 24.8256 495.29 34.1689C495.29 43.2727 490.259 48.3637 479.898 48.3637H473.13Z" fill="#21BA72"/>
</svg>
