<svg width="169" height="93" viewBox="0 0 169 93" fill="none" xmlns="http://www.w3.org/2000/svg">
<path d="M104.081 28.8389V30.3242H116.834C117.685 30.3242 118.96 30.3242 119.797 31.1737C120.634 32.0232 120.647 33.2974 120.647 34.134V46.8763C120.647 47.7258 120.647 49 119.797 49.8366C118.947 50.6861 117.672 50.6861 116.834 50.6861H110.677C109.615 50.6861 108.232 50.6861 107.714 49.5174C107.183 48.3487 107.926 47.2882 108.564 46.4284L116.86 35.3851H104.107L99.006 42.181C98.1506 43.3188 97.4112 44.3047 97.4112 45.5789C97.4112 46.8531 98.0991 47.7695 99.006 48.9768L100.281 50.6758C101.557 52.3748 102.832 54.0738 104.532 54.9232C106.233 55.7727 108.242 55.7727 111.025 55.7727H116.538C119.733 55.7727 124.499 55.7727 127.694 52.5807C130.888 49.3887 130.888 44.7294 130.888 43.0304V37.9335C130.888 36.2346 130.888 31.5753 127.694 28.3833C124.499 25.1913 119.733 25.1913 116.538 25.1913L107.727 25.1884C106.877 25.1882 105.815 25.1884 104.97 26.0379C104.12 26.8874 104.12 27.948 104.12 28.7923" fill="#31373B"/>
<path d="M88.8809 35.4288H101.505L86.3045 55.868H73.6803L88.8809 35.4288Z" fill="#31373B"/>
<path d="M39.1571 39.0327C39.1571 38.1832 39.1571 37.1227 40.0073 36.2783C40.8575 35.434 41.919 35.4288 42.764 35.4288H64.122C66.8788 35.4288 68.9141 35.4288 70.6145 36.2783C72.3149 37.1278 73.5773 38.8268 74.8655 40.5257L76.1408 42.2247C77.0451 43.4294 77.7355 44.3484 77.7355 45.6227C77.7355 46.8969 76.9961 47.8828 76.1408 49.0206L71.0396 55.8165H58.2866L66.5825 44.7732C67.2188 43.9237 67.9634 42.8631 67.4327 41.6841C66.9019 40.5154 65.521 40.5154 64.4699 40.5154H54.4736V66H44.2712V40.5154H39.17V39.0276" fill="#31373B"/>
</svg>
