<svg width="169" height="93" viewBox="0 0 169 93" fill="none" xmlns="http://www.w3.org/2000/svg">
<path d="M46.2133 24.0771H31.5327V68.0627H46.2133V24.0771Z" fill="#31373B"/>
<path d="M60.8658 37.2109L47.7601 24.0771H60.8658V37.2109Z" fill="#31373B"/>
<path d="M16.8803 37.2109L30.0141 24.0771H16.8803V37.2109Z" fill="#31373B"/>
<path d="M75.7433 31.783H84.546V34.3423H81.3399V42.6388H78.9494V34.3423H75.7433V31.783Z" fill="#31373B"/>
<path d="M90.8176 36.9297C90.5926 36.7609 90.1989 36.5922 89.7489 36.5922C88.9333 36.5922 88.2864 37.0141 88.0896 37.8296V42.6388H85.7553V34.3423H88.0052V35.4391C88.2583 34.6517 88.9333 34.1173 89.8333 34.1173C90.452 34.1173 90.9863 34.4267 91.1551 34.7642L90.8176 36.9297Z" fill="#31373B"/>
<path d="M107.551 41.9639C107.129 42.4982 106.37 42.8919 105.386 42.8919C103.53 42.8919 102.601 41.7389 102.601 40.0514V36.7891H101.195V36.1141L104.373 32.2612H104.936V34.3423H107.411V36.7891H104.936V39.489C104.936 40.1639 105.358 40.4171 105.836 40.4171C106.286 40.4171 106.651 40.2483 107.045 39.8265L107.551 41.9639Z" fill="#31373B"/>
<path d="M108.648 34.3423H111.292L113.232 39.0108L115.173 34.3423H117.816L112.81 46.0136H110.279L111.967 42.0482L108.648 34.3423Z" fill="#31373B"/>
<path d="M129.347 31.783H131.681V37.464L134.438 34.3423H137.503L133.819 38.4483L137.812 42.6388H134.719L131.681 39.4889V42.6388H129.347V31.783Z" fill="#31373B"/>
<path d="M146.728 38.5046C146.728 41.0358 144.646 42.8919 142.256 42.8919C139.865 42.8919 137.784 41.0358 137.784 38.5046C137.784 35.9735 139.865 34.1173 142.256 34.1173C144.618 34.1173 146.728 35.9735 146.728 38.5046ZM144.365 38.5046C144.365 37.3515 143.409 36.5922 142.256 36.5922C141.103 36.5922 140.147 37.3797 140.147 38.5046C140.147 39.6577 141.103 40.417 142.256 40.417C143.381 40.417 144.365 39.6296 144.365 38.5046Z" fill="#31373B"/>
<path d="M147.178 34.3423H149.709L151.902 39.3202L154.096 34.3423H156.627L152.943 42.6388H150.862L147.178 34.3423Z" fill="#31373B"/>
<path d="M122.372 34.1173C123.666 34.1173 124.51 34.5954 124.791 35.2141V34.3704H127.041V42.6388H124.791V41.7951C124.51 42.3857 123.666 42.8919 122.372 42.8919C120.179 42.8919 118.266 41.1201 118.266 38.5046C118.266 35.8891 120.179 34.1173 122.372 34.1173ZM122.766 40.417C123.722 40.417 124.482 39.9952 124.707 39.4608V37.5203C124.482 36.9859 123.722 36.5641 122.766 36.5641C121.472 36.5641 120.629 37.3797 120.629 38.4765C120.629 39.6014 121.501 40.417 122.766 40.417Z" fill="#31373B"/>
<path d="M100.239 39.2358H94.1925C94.4175 40.1358 95.2331 40.6701 96.4986 40.6701C97.483 40.6701 98.4673 40.3045 98.9173 39.7421L99.6766 41.4857C99.1141 42.3294 97.8204 42.8919 96.3299 42.8919C93.7706 42.8919 91.8301 41.2045 91.8301 38.5327C91.8301 36.1703 93.5175 34.1173 96.1611 34.1173C98.636 34.1173 100.295 36.1985 100.295 38.5327C100.295 38.7859 100.267 39.039 100.239 39.2358ZM97.9611 37.6047C97.7923 36.7891 97.033 36.3672 96.133 36.3672C95.233 36.3672 94.4737 36.8172 94.2487 37.6047H97.9611Z" fill="#31373B"/>
<path d="M78.5557 55.0133C78.5557 57.0944 80.0462 58.3037 82.2961 58.3037C83.1961 58.3037 83.8992 58.0506 84.4054 57.6288V56.8132H82.2399V54.3383H86.7397V58.4162C85.9241 59.6818 84.6023 60.8911 82.043 60.8911C78.9775 60.8911 76.1089 58.4725 76.1089 55.0133C76.1089 51.5259 78.9775 49.0792 82.043 49.0792C84.0398 49.0792 85.5866 49.951 86.2334 51.0197L85.5022 53.129C84.9116 52.3978 83.7304 51.6665 82.2399 51.6665C80.0181 51.6947 78.5557 52.9884 78.5557 55.0133Z" fill="#31373B"/>
<path d="M92.3081 52.1447C93.6018 52.1447 94.4737 52.6228 94.783 53.2415V52.3978H97.0329V60.6661H94.783V59.8224C94.5018 60.413 93.6018 60.9193 92.3081 60.9193C90.1426 60.9193 88.174 59.1475 88.174 56.532C88.174 53.9164 90.1145 52.1447 92.3081 52.1447ZM92.7019 58.4444C93.6581 58.4444 94.4455 58.0225 94.6987 57.4882V55.5757C94.4737 55.0414 93.6581 54.6195 92.7019 54.6195C91.4363 54.6195 90.5363 55.4351 90.5363 56.532C90.5082 57.6288 91.4082 58.4444 92.7019 58.4444Z" fill="#31373B"/>
<path d="M99.1422 49.8104H101.476V60.6661H99.1422V49.8104Z" fill="#31373B"/>
<path d="M103.642 49.8104H105.976V60.6661H103.642V49.8104Z" fill="#31373B"/>
<path d="M116.073 57.3757H110.054C110.279 58.2475 111.151 58.6412 112.22 58.6412C113.204 58.6412 114.273 58.3038 114.751 57.6288L115.482 59.4006C114.892 60.3287 113.654 60.8911 112.164 60.8911C109.632 60.8911 107.664 59.2037 107.664 56.532C107.664 54.1696 109.351 52.1447 111.995 52.1447C114.47 52.1447 116.129 54.2258 116.129 56.532C116.129 56.8132 116.101 57.1788 116.073 57.3757ZM113.767 55.632C113.598 54.8164 112.867 54.4227 111.995 54.4227C111.095 54.4227 110.307 54.8164 110.11 55.632H113.767Z" fill="#31373B"/>
<path d="M122.851 54.957C122.626 54.7883 122.232 54.6195 121.782 54.6195C120.966 54.6195 120.319 55.0414 120.123 55.857V60.6661H117.788V52.3977H120.038V53.4946C120.291 52.7071 120.966 52.1728 121.866 52.1728C122.485 52.1728 122.991 52.4821 123.188 52.8196L122.851 54.957Z" fill="#31373B"/>
<path d="M123.947 52.3978H126.45L128.419 57.0382L130.388 52.3978H132.947L127.997 64.041H125.466L127.182 60.0193L123.947 52.3978Z" fill="#31373B"/>
</svg>
