<svg width="169" height="93" viewBox="0 0 169 93" fill="none" xmlns="http://www.w3.org/2000/svg">
<g clip-path="url(#clip0_1268_285521)">
<path d="M134.854 21.2602V21.1309C134.854 20.8722 134.984 20.7428 135.244 20.7428H140.449V16.388C140.449 16.1293 140.58 16 140.84 16H141.057C141.317 16 141.447 16.1293 141.447 16.388V20.7428H146.609C146.869 20.7428 147 20.8722 147 21.1309V21.2602C147 21.5189 146.869 21.6483 146.609 21.6483H141.447V26.6929C141.447 26.9516 141.317 27.0809 141.057 27.0809H140.84C140.58 27.0809 140.449 26.9516 140.449 26.6929V21.6914H135.244C134.984 21.6914 134.854 21.5189 134.854 21.2602Z" fill="#31373B"/>
<path d="M35.8639 71.7498L35.9506 71.6636C36.0374 71.5774 36.1242 71.5342 36.2543 71.6636C36.558 71.9654 37.3822 72.5259 38.4666 72.5259C39.6379 72.5259 40.5054 71.836 40.5054 70.7581C40.5054 68.2574 35.9073 68.861 35.9073 66.1016C35.9073 64.6787 37.1219 63.8164 38.6401 63.8164C39.7246 63.8164 40.4621 64.2907 40.7657 64.5063C40.8525 64.5925 40.8959 64.6787 40.8091 64.8081L40.7223 64.9374C40.6356 65.0668 40.5488 65.0668 40.4187 64.9805C40.115 64.765 39.4643 64.3769 38.5968 64.3769C37.4689 64.3769 36.4712 65.0237 36.4712 66.1016C36.4712 68.473 41.0694 67.8262 41.0694 70.715C41.0694 72.0516 40.0717 73.0864 38.4233 73.0864C37.0785 73.0864 36.2109 72.4397 35.8639 72.1379C35.7771 71.9223 35.7771 71.836 35.8639 71.7498Z" fill="#31373B"/>
<path d="M52.088 63.73C54.6907 63.73 56.6428 65.7133 56.6428 68.3003C56.6428 70.9304 54.6907 73 52.088 73C49.4853 73 47.5332 70.9304 47.5332 68.3003C47.5332 65.7565 49.5286 63.73 52.088 63.73ZM52.088 72.4826C54.3437 72.4826 56.0789 70.6717 56.0789 68.3003C56.0789 66.0152 54.3871 64.2474 52.088 64.2474C49.7889 64.2474 48.0971 66.0152 48.0971 68.3003C48.1405 70.6717 49.8323 72.4826 52.088 72.4826Z" fill="#31373B"/>
<path d="M63.9297 64.1179C63.9297 63.9886 64.0164 63.9023 64.1466 63.9023H68.2676C68.3977 63.9023 68.4845 63.9886 68.4845 64.1179V64.2042C68.4845 64.3335 68.3977 64.4197 68.2676 64.4197H64.4936V68.1709H67.7037C67.8338 68.1709 67.9206 68.2571 67.9206 68.3865V68.4727C67.9206 68.602 67.8338 68.6883 67.7037 68.6883H64.4936V72.655C64.4936 72.7843 64.4069 72.8706 64.2767 72.8706H64.1466C64.0164 72.8706 63.9297 72.7843 63.9297 72.655V64.1179Z" fill="#31373B"/>
<path d="M77.9847 64.4197H74.8614C74.7313 64.4197 74.6445 64.3335 74.6445 64.2042V64.1179C74.6445 63.9886 74.7313 63.9023 74.8614 63.9023H81.6719C81.8021 63.9023 81.8888 63.9886 81.8888 64.1179V64.2042C81.8888 64.3335 81.8021 64.4197 81.6719 64.4197H78.5486V72.655C78.5486 72.7843 78.4619 72.8706 78.3317 72.8706H78.2016C78.0715 72.8706 77.9847 72.7843 77.9847 72.655V64.4197Z" fill="#31373B"/>
<path d="M88.1793 64.1181C88.1359 63.9456 88.2226 63.8594 88.3528 63.8594H88.4829C88.613 63.8594 88.6998 63.9025 88.7432 64.0318L90.6085 71.1461C90.7386 71.5772 90.8254 72.0946 90.8254 72.0946H90.8687C90.8687 72.0946 90.9989 71.5772 91.129 71.1461L93.1245 64.0318C93.1678 63.9025 93.2546 63.8594 93.3847 63.8594H93.6016C93.7318 63.8594 93.8185 63.9025 93.8619 64.0318L95.8573 71.1461C95.9875 71.5772 96.1176 72.0946 96.1176 72.0946H96.161C96.161 72.0946 96.2477 71.5772 96.3779 71.1461L98.2866 64.0318C98.3299 63.9025 98.4167 63.8594 98.5468 63.8594H98.677C98.8505 63.8594 98.8939 63.9456 98.8505 64.1181L96.5514 72.6551C96.508 72.7845 96.4213 72.8276 96.2911 72.8276H95.9875C95.8573 72.8276 95.7706 72.7845 95.7272 72.6551L93.8619 66.1014C93.6884 65.5409 93.5149 64.6786 93.5149 64.6786H93.4715C93.4715 64.6786 93.298 65.5409 93.1245 66.1014L91.2592 72.6551C91.2158 72.7845 91.129 72.8276 90.9989 72.8276H90.6952C90.5651 72.8276 90.4783 72.7845 90.435 72.6551L88.1793 64.1181Z" fill="#31373B"/>
<path d="M107.612 64.0748C107.656 63.9455 107.743 63.9023 107.873 63.9023H108.09C108.22 63.9023 108.307 63.9455 108.35 64.0748L111.56 72.5688C111.603 72.7412 111.56 72.8275 111.386 72.8275H111.256C111.126 72.8275 111.039 72.7843 110.996 72.655L109.912 69.7231H106.094L105.01 72.655C104.966 72.7843 104.88 72.8275 104.749 72.8275H104.576C104.402 72.8275 104.359 72.7412 104.402 72.5688L107.612 64.0748ZM109.695 69.2488L108.35 65.627C108.22 65.239 108.003 64.5491 108.003 64.5491H107.959C107.959 64.5491 107.786 65.239 107.612 65.627L106.224 69.2488H109.695Z" fill="#31373B"/>
<path d="M118.327 64.1179C118.327 63.9886 118.413 63.9023 118.544 63.9023H120.973C121.797 63.9023 122.231 63.9886 122.578 64.161C123.315 64.5491 123.836 65.2821 123.836 66.3169C123.836 67.6104 123.098 68.5589 122.014 68.7745V68.8176C122.014 68.8176 122.1 68.9039 122.231 69.1194L124.096 72.5688C124.183 72.7412 124.096 72.8275 123.923 72.8275H123.749C123.619 72.8275 123.532 72.7843 123.489 72.655L121.45 68.8607H118.847V72.6119C118.847 72.7412 118.76 72.8275 118.63 72.8275H118.5C118.37 72.8275 118.283 72.7412 118.283 72.6119L118.327 64.1179ZM121.32 68.3865C122.491 68.3865 123.228 67.5241 123.228 66.3169C123.228 65.5408 122.838 64.894 122.187 64.5922C121.927 64.4629 121.667 64.4197 120.929 64.4197H118.891V68.3865H121.32Z" fill="#31373B"/>
<path d="M131.211 64.1179C131.211 63.9886 131.298 63.9023 131.428 63.9023H135.896C136.026 63.9023 136.113 63.9886 136.113 64.1179V64.2042C136.113 64.3335 136.026 64.4197 135.896 64.4197H131.732V68.0846H135.115C135.246 68.0846 135.332 68.1709 135.332 68.3002V68.3865C135.332 68.5158 135.246 68.602 135.115 68.602H131.732V72.3532H136.113C136.243 72.3532 136.33 72.4394 136.33 72.5688V72.655C136.33 72.7843 136.243 72.8706 136.113 72.8706H131.385C131.255 72.8706 131.168 72.7843 131.168 72.655L131.211 64.1179Z" fill="#31373B"/>
<path d="M35.9931 36.6095C35.9931 31.3062 35.9931 30.3145 35.9064 29.2366C35.8196 28.0725 35.5594 27.5119 34.4315 27.2964C34.1712 27.2101 33.5639 27.2101 33.2603 27.2101C33.1301 27.2101 33 27.1239 33 26.9945C33 26.779 33.1735 26.7358 33.5639 26.7358C35.1256 26.7358 37.2511 26.8221 37.4247 26.8221C37.8151 26.8221 40.4178 26.7358 41.4589 26.7358C43.6279 26.7358 45.9269 26.9514 47.7489 28.2449C48.6164 28.8485 50.1347 30.5301 50.1347 32.9015C50.1347 35.4454 49.0502 37.9461 45.9703 40.7918C48.79 44.3705 51.1324 47.3886 53.1279 49.5013C54.9932 51.4416 56.468 51.8296 57.2922 51.959C57.9429 52.0452 58.4201 52.0452 58.637 52.0452C58.8105 52.0452 58.9406 52.1315 58.9406 52.2608C58.9406 52.4764 58.7237 52.5195 58.1164 52.5195H55.6872C53.7785 52.5195 52.911 52.347 52 51.8728C50.5251 51.0967 49.3105 49.4151 47.3584 46.8712C45.9269 45.0172 44.3219 42.7321 43.6279 41.8266C43.4977 41.6973 43.3676 41.611 43.1941 41.611L38.9863 41.5248C38.8128 41.5248 38.726 41.611 38.726 41.7835V42.6027C38.726 45.8796 38.726 48.5528 38.8995 50.0187C38.9863 51.0104 39.2032 51.7434 40.2443 51.8728C40.7215 51.959 41.4589 52.0021 41.8059 52.0021C42.0228 52.0021 42.0662 52.0883 42.0662 52.2177C42.0662 52.3902 41.8927 52.4764 41.5023 52.4764C39.5936 52.4764 37.468 52.3902 37.2945 52.3902C37.2511 52.3902 35.0822 52.4764 34.0845 52.4764C33.6941 52.4764 33.5205 52.3902 33.5205 52.2177C33.5205 52.1315 33.6073 52.0021 33.7808 52.0021C34.0845 52.0021 34.5183 51.9159 34.8219 51.8728C35.516 51.7434 35.6895 50.9673 35.8196 50.0187C35.9931 48.5959 35.9931 45.8796 35.9931 42.6027V36.6095ZM38.726 39.5846C38.726 39.757 38.8128 39.8864 38.9863 39.9726C39.5069 40.2744 41.0685 40.5331 42.5868 40.5331C43.411 40.5331 44.3653 40.4469 45.1461 39.8864C46.3607 39.0672 47.2283 37.2131 47.2283 34.6262C47.2283 30.3576 44.9726 27.8138 41.2854 27.8138C40.2443 27.8138 39.3333 27.9 38.9863 28.0293C38.8128 28.1156 38.726 28.2449 38.726 28.4174V39.5846Z" fill="#31373B"/>
<path d="M69.3515 30.1851C76.162 30.1851 81.2807 34.3242 81.2807 41.0504C81.2807 47.5179 76.4223 52.8643 69.178 52.8643C60.8926 52.8643 57.3789 46.6987 57.3789 41.4816C57.3789 36.825 61.0227 30.1851 69.3515 30.1851ZM70.0456 51.7002C72.7351 51.7002 78.2008 50.2773 78.2008 41.8696C78.2008 34.9279 73.9497 31.263 69.178 31.263C64.146 31.263 60.5022 34.4105 60.5022 40.7055C60.5022 47.4748 64.5798 51.7002 70.0456 51.7002Z" fill="#31373B"/>
<path d="M90.391 44.974C90.391 43.4218 90.1741 42.8182 89.7403 41.999C89.4801 41.5678 85.4024 35.1003 84.4047 33.5912C83.6673 32.5133 82.9732 31.8666 82.4093 31.4785C81.9755 31.2198 81.3682 31.0905 81.1513 31.0905C80.9778 31.0905 80.8477 30.9611 80.8477 30.8318C80.8477 30.7024 80.9344 30.6162 81.2381 30.6162C81.802 30.6162 84.1011 30.7024 84.2312 30.7024C84.4481 30.7024 85.6627 30.6162 86.834 30.6162C87.181 30.6162 87.2244 30.7024 87.2244 30.8318C87.2244 30.918 87.0075 31.0474 86.7472 31.1336C86.4869 31.2198 86.3568 31.3923 86.3568 31.6079C86.3568 32.0391 86.5737 32.3409 86.7472 32.7289L92.2563 41.7834C92.8636 40.5761 96.6376 34.3673 97.2015 33.3757C97.5919 32.7289 97.7221 32.2546 97.7221 31.8666C97.7221 31.4785 97.5919 31.2198 97.2449 31.1336C96.9846 31.0474 96.8111 30.918 96.8111 30.7887C96.8111 30.7024 96.9846 30.6162 97.2883 30.6162C98.0691 30.6162 99.1536 30.7024 99.3705 30.7024C99.5874 30.7024 101.756 30.6162 102.32 30.6162C102.537 30.6162 102.711 30.7024 102.711 30.7887C102.711 30.918 102.58 31.0905 102.32 31.0905C101.973 31.0905 101.409 31.1767 100.932 31.4785C100.368 31.8235 100.064 32.1253 99.4139 32.9014C98.4161 34.0655 94.165 40.8779 93.5577 42.1283C93.0372 43.1631 93.1673 44.0686 93.1673 45.0171V47.4748C93.1673 47.949 93.1673 49.1994 93.254 50.3636C93.3408 51.2259 93.5143 51.7433 94.4253 51.9158C94.8157 52.002 95.5098 52.0451 95.8134 52.0451C95.9869 52.0451 96.0737 52.1745 96.0737 52.3038C96.0737 52.4332 95.9002 52.5625 95.5965 52.5625C93.9047 52.5625 91.9527 52.4763 91.7792 52.4763C91.649 52.4763 89.7403 52.5625 88.8294 52.5625C88.4824 52.5625 88.3522 52.4763 88.3522 52.3038C88.3522 52.2176 88.439 52.0451 88.6125 52.0451C88.8728 52.0451 89.2198 51.9589 89.5235 51.9158C90.1308 51.7864 90.3477 51.2259 90.4344 50.3636C90.5212 49.1563 90.5212 47.949 90.5212 47.4748V44.974H90.391Z" fill="#31373B"/>
<path d="M110.517 31.1767C110.908 30.2281 111.038 30.0557 111.255 30.0557C111.558 30.0557 111.645 30.4437 111.992 31.1336C112.556 32.3408 117.371 44.3272 119.237 48.7251C120.321 51.3121 121.145 51.7001 121.796 51.9157C122.23 52.0451 122.707 52.0882 123.011 52.0882C123.184 52.0882 123.401 52.1744 123.401 52.3469C123.401 52.5194 123.054 52.6056 122.707 52.6056C122.273 52.6056 120.017 52.6056 117.935 52.5194C117.371 52.4762 116.851 52.4762 116.851 52.3038C116.851 52.1744 116.937 52.1744 117.068 52.0882C117.241 52.002 117.545 51.7864 117.328 51.3121L114.638 44.6722C114.552 44.5428 114.552 44.4997 114.378 44.4997H107.394C107.264 44.4997 107.134 44.5859 107.09 44.7584L105.355 49.415C105.095 50.1479 104.922 50.8378 104.922 51.3552C104.922 51.9157 105.442 52.1313 105.963 52.1313H106.223C106.483 52.1313 106.527 52.2175 106.527 52.39C106.527 52.5625 106.353 52.6487 106.093 52.6487C105.355 52.6487 103.707 52.5625 103.403 52.5625C103.1 52.5625 101.581 52.6487 100.367 52.6487C99.9763 52.6487 99.8027 52.5625 99.8027 52.39C99.8027 52.2607 99.9329 52.1313 100.063 52.1313C100.28 52.1313 100.714 52.0882 100.974 52.0451C102.362 51.8726 102.926 50.8378 103.533 49.3719L110.517 31.1767ZM113.858 43.2493C113.988 43.2493 113.988 43.1631 113.944 43.0337L110.951 35.1003C110.778 34.6691 110.604 34.6691 110.431 35.1003L107.611 43.0337C107.568 43.1631 107.611 43.2493 107.698 43.2493H113.858Z" fill="#31373B"/>
<path d="M130.645 44.1551C130.645 48.4236 130.732 50.1483 131.253 50.6657C131.73 51.14 132.901 51.3555 135.287 51.3555C136.849 51.3555 138.193 51.3124 138.931 50.4501C139.321 50.0189 139.538 49.3722 139.668 48.8117C139.712 48.5961 139.798 48.4236 139.972 48.4236C140.102 48.4236 140.189 48.553 140.189 48.8548C140.189 49.1566 139.972 50.8813 139.755 51.7436C139.538 52.4334 139.451 52.5197 137.846 52.5197C135.677 52.5197 133.986 52.4766 132.597 52.4334C131.209 52.3903 130.212 52.3472 129.301 52.3472C129.17 52.3472 128.65 52.3472 128.086 52.3903C127.479 52.4334 126.828 52.4766 126.351 52.4766C126.047 52.4766 125.874 52.3903 125.874 52.2179C125.874 52.1316 125.96 51.9592 126.134 51.9592C126.394 51.9592 126.785 51.8729 127.045 51.8298C127.609 51.7005 127.696 51.1399 127.826 50.2776C127.999 49.0704 127.999 46.7852 127.999 43.9826V38.9811C127.999 34.497 127.999 33.6778 127.912 32.7292C127.826 31.7375 127.652 31.2633 126.698 31.1339C126.438 31.0908 125.96 31.0477 125.657 31.0477C125.57 31.0477 125.396 30.9183 125.396 30.789C125.396 30.6165 125.527 30.5303 125.874 30.5303C127.262 30.5303 129.127 30.6165 129.301 30.6165C129.431 30.6165 131.686 30.5303 132.641 30.5303C132.944 30.5303 133.118 30.6165 133.118 30.789C133.118 30.8752 132.988 31.0046 132.858 31.0046C132.641 31.0046 132.207 31.0477 131.86 31.0908C130.949 31.2633 130.775 31.6944 130.732 32.7292C130.689 33.6347 130.689 34.4539 130.689 38.9811L130.645 44.1551Z" fill="#31373B"/>
</g>
<defs>
<clipPath id="clip0_1268_285521">
<rect width="114" height="57" fill="white" transform="translate(33 16)"/>
</clipPath>
</defs>
</svg>
