<svg width="169" height="93" viewBox="0 0 169 93" fill="none" xmlns="http://www.w3.org/2000/svg">
<path fill-rule="evenodd" clip-rule="evenodd" d="M92.3122 43.4113L92.2891 43.4283C91.4359 44.4123 90.423 45.3963 89.2738 46.3578L89.069 46.5265C87.9595 47.4487 86.6907 48.3596 85.3024 49.2143L85.2283 49.2706L85.0748 49.3605C84.2327 49.8778 83.3054 50.3951 82.321 50.9011L82.2072 50.9631L82.1958 50.9687L82.1104 51.0081L80.6938 51.6997L80.4661 51.8009L80.4378 51.8066L79.5672 52.2002L79.5444 52.217L79.5217 52.2227L79.3396 52.3014L79.3169 52.307L78.1903 52.7737L78.0309 52.8299L77.8374 52.9143L77.7178 52.9648L77.1546 53.3136L76.4149 54.5112V54.517L76.358 54.815L76.3466 54.9219L76.284 55.1859L75.8801 55.467H75.8687L75.5957 55.3658C73.7647 53.7027 73.4443 50.2232 73.4081 49.8302L73.4052 49.7991L73.3824 49.0288C73.3824 48.3203 73.445 47.5386 73.5645 46.7234V46.6952L73.6384 46.2623C73.8261 45.1769 74.1164 43.9961 74.5089 42.7647L74.5147 42.7478L74.5488 42.6466L74.5544 42.6185L74.5772 42.5341L74.6512 42.3599C75.1633 40.8079 75.8347 39.121 76.6539 37.361L76.6653 37.3329L76.7052 37.243L76.8588 36.9168C77.5529 35.4491 78.2413 34.1221 78.742 33.1606L79.1006 32.4127C79.6809 31.0914 80.3524 29.1963 80.4661 28.7128C80.7847 27.3352 80.9327 26.1598 80.9327 25.1365C80.9327 23.2134 80.4035 22.1508 79.8402 21.0262L79.2599 19.7609L79.2485 19.7328L79.1006 19.1143C79.1006 18.3214 79.7378 17.6748 80.5117 17.6748L81.092 17.804L81.3481 17.9222C81.7406 18.1976 82.173 18.8162 82.7534 19.9128L83.1858 20.818L83.5557 20.2444L84.4661 19.9183C85.4559 19.9465 85.9283 21.1553 86.1958 22.0719C86.3493 22.5948 86.4461 23.1291 86.5086 23.5452C86.6964 23.3033 87.0434 23.0166 87.618 23.0166H87.675C87.9594 23.0222 88.4888 23.129 88.8754 23.8431C89.2626 24.546 89.4559 25.6537 89.4786 27.2394L90.3378 26.8795L90.696 26.9302C91.3904 27.1269 91.8284 27.9366 91.8911 29.1456L91.9026 29.5056C91.9026 30.422 91.7489 31.5803 91.652 32.2439L92.4712 32.0133C93.1427 32.0133 93.8255 32.5195 93.8599 33.6608V33.689C93.7062 35.4039 93.0119 37.2595 92.6763 38.0637L93.0973 38.0075L94.2409 38.4911L94.6336 39.5313L94.4741 40.3185L94.4685 40.3297C94.3915 40.5263 94.0653 41.1549 93.3952 42.0666C94.0524 41.1277 94.3512 40.5123 94.3995 40.3841L94.4113 40.3481L94.4287 40.3002L94.4807 40.1626L94.5385 39.6837L94.2607 38.8934L93.4737 38.5641L92.7678 38.7677C92.5479 39.2165 92.1664 39.9224 91.5651 40.8256C91.4915 40.8055 91.4144 40.7949 91.3351 40.7949L90.6597 41.097L90.4056 41.463L90.2433 41.6895L90.211 41.736L90.1408 41.8289L89.8435 42.2182L89.7245 42.3749L89.6437 42.4854L89.5246 42.6305L89.3464 42.8512L89.3031 42.9154L89.2004 43.0373L89.0654 43.2059L88.9031 43.3975L88.8492 43.4615L88.5898 43.7693C89.2276 43.8506 89.7245 44.4606 89.7301 45.1867V45.2564C90.5136 44.4896 91.227 43.7054 91.8647 42.9154L92.3077 41.8987C92.3078 41.3803 91.9954 40.9457 91.5699 40.8269L91.7261 40.8212C92.5102 40.8212 93.1565 41.4571 93.2412 42.273C93.0045 42.5855 92.7301 42.9273 92.4146 43.2932L92.3122 43.4113ZM67.3455 30.0735C65.9344 30.0735 64.7965 28.9434 64.7965 27.5489C64.7965 26.1543 65.9344 25.0298 67.3455 25.0298C68.7565 25.0298 69.9003 26.1544 69.9003 27.5489C69.9003 28.9434 68.7566 30.0735 67.3455 30.0735ZM108.733 63.438C107.839 63.2916 107.731 62.0321 107.731 61.8635C107.731 61.829 107.726 61.7644 107.719 61.6719C107.661 60.9204 107.46 58.3211 108.63 54.9441L109.085 53.7634C109.341 52.7287 109.478 51.6547 109.478 50.5413L109.438 49.5966C113.489 45.7675 113.119 40.7292 113.119 40.7292C113.119 38.4631 112.34 36.9786 111.27 35.7697C111.27 35.7697 109.358 33.1831 103.316 31.2768C101.245 30.6246 99.7995 29.9555 98.8268 29.2695C97.6091 28.4091 97.1427 27.5881 97.1427 27.5881C96.8524 27.0708 96.6876 26.4805 96.6876 25.8507C96.6876 23.8658 98.309 22.2632 100.306 22.2632C101.086 22.2632 101.808 22.5049 102.394 22.9155L102.485 22.9604L104.078 22.6906C104.625 22.1563 104.625 21.2791 104.078 20.7393L103.919 20.5989L103.771 20.5201C102.775 19.8791 101.586 19.5135 100.306 19.5135C96.773 19.5135 93.8938 22.3475 93.8938 25.8508C93.8938 27.1216 94.2807 28.3024 94.9351 29.2976C94.9351 29.2976 96.7953 31.9405 101.968 33.4081C106.337 34.6507 109.028 36.9506 109.836 38.7162C110.053 39.1941 110.155 39.7339 110.155 40.2907C110.155 42.1688 108.869 43.7433 107.122 44.2043C104.864 42.5849 102.075 41.6345 99.0772 41.6345C98.3717 41.6345 97.6718 41.6852 97.0005 41.7864C96.7262 41.8585 96.4741 41.9251 96.2409 41.9867L96.2387 41.9873C95.1814 42.2666 94.5108 42.4437 93.9053 42.5679C94.6335 41.5895 94.9918 40.8979 95.0887 40.6561L95.3048 39.5877C95.3163 39.0311 95.1227 38.5251 94.7529 38.1145L93.6546 37.4622C94.0075 36.4838 94.4172 35.1118 94.531 33.8185L94.5425 33.7792V33.7342V33.7117C94.4969 32.1204 93.4386 31.4006 92.4771 31.4006H92.4712H92.4599H92.4487C92.5226 30.8215 92.5738 30.1579 92.5738 29.5674L92.5681 29.1795V29.1738V29.1682C92.4884 27.65 91.8626 26.6266 90.8725 26.351L90.3319 26.278L90.1613 26.2836C90.0759 25.0747 89.8598 24.158 89.5126 23.5227C89.1201 22.786 88.4772 22.3531 87.7318 22.3474L87.6694 22.3418L87.0433 22.4318L86.9012 21.8863L86.8972 21.8729C86.7054 21.2238 86.1332 19.2881 84.5343 19.2434H84.5172H84.5057L83.3906 19.5695C82.7591 18.3662 82.2812 17.7084 81.7918 17.3654L81.3708 17.1686L80.5685 17H80.5571C79.4078 17 78.4689 17.9502 78.4689 19.1143L78.6567 19.969L78.6625 19.9915V19.997L78.6681 20.0083L79.2712 21.3186C79.8288 22.4206 80.3067 23.3709 80.3067 25.1365C80.3067 26.1093 80.1588 27.2283 79.8515 28.5553C79.749 29.0052 79.0891 30.872 78.5201 32.1485V32.1598L78.1901 32.8458C78.0828 33.0537 77.9722 33.2664 77.8596 33.483C77.6738 33.8405 77.4825 34.2086 77.2911 34.5832C77.0123 31.3613 75.772 28.128 74.7535 26.0307C75.3054 24.1076 74.8218 21.7684 74.5659 20.79L74.0707 20.3064L73.6554 20.6663C73.2741 21.7514 72.6768 22.8311 72.5344 22.758C71.9768 22.4769 70.5202 21.8471 68.7109 21.8471C66.7082 21.8302 65.1833 22.3982 65.1833 22.3982L65.1606 22.4038C64.5802 21.9876 64.1934 21.6223 63.7723 20.8855L63.3399 20.4807L62.8277 21.0093C62.7195 21.566 62.6344 22.7019 63.4367 23.8602C62.7084 24.7542 62.2361 25.862 62.1395 27.0709L62.0768 27.369C59.4107 29.0274 59.5592 31.1984 59.6097 31.937L59.6097 31.937L59.6097 31.937C59.6142 32.0023 59.6179 32.0564 59.6188 32.0979C59.6188 32.0979 59.8805 33.5206 60.6941 32.7165C60.7081 32.7026 60.7264 32.6822 60.7493 32.6568L60.7493 32.6567L60.7493 32.6567L60.7494 32.6566L60.7495 32.6565L60.7495 32.6564L60.7496 32.6564L60.7496 32.6564C60.9409 32.4432 61.4477 31.8787 62.367 31.8787C63.0952 31.8787 63.7723 32.0923 64.3355 32.469C64.349 32.4777 64.3685 32.4889 64.3935 32.5032L64.3936 32.5033C64.9537 32.8238 68.2987 34.7383 69.0011 46.2287L69.0353 47.3701L69.0523 47.3196L69.1831 48.7084L69.2741 49.327C69.6725 51.5707 70.5088 53.6511 71.6866 55.4956H71.6981C72.0849 56.097 72.5116 56.6765 72.9668 57.2304L73.0237 57.2976C73.4902 57.8601 73.9909 58.3999 74.5314 58.8947C74.099 62.5835 72.853 66.6431 72.5003 67.3179C72.0906 68.1165 69.314 71.659 69.314 71.659L68.2103 71.9625H66.6171C65.1435 71.9625 65.1547 73.4019 65.1547 73.4019C64.0112 73.4019 64.1649 74.9992 64.1649 74.9992H65.8262V74.9427C65.8262 74.9427 65.9115 73.2558 67.3909 73.2558H68.3126L68.324 73.6606L67.425 73.7168C66.674 73.8517 66.509 74.5493 66.5033 74.9991H71.1291L72.3921 74.5265C72.3921 74.5265 72.8303 73.6046 73.5245 72.2323L73.7179 72.0863C74.0878 72.0074 74.4804 71.7153 75.0209 71.1755C75.8686 70.343 76.0507 68.7125 76.0051 67.6779C77.5413 65.0349 79.2938 62.4373 80.6593 61.5039C82.0306 60.5704 82.901 59.7607 83.436 59.0859L83.5667 59.0749C86.1784 59.0749 88.6251 58.3437 90.7074 57.0955L91.1 56.8453C91.5439 59.8396 93.518 62.3923 94.4683 63.4719C97.4896 66.9243 92.8128 71.5128 92.4882 71.7266L91.4812 71.9626H89.6721C88.1984 71.9626 88.2096 73.4021 88.2096 73.4021C87.066 73.4021 87.2196 74.9993 87.2196 74.9993H88.8811V74.9429C88.8811 74.9429 89.0005 73.2559 90.4798 73.2559H91.4017L91.4129 73.6608L90.4913 73.7169C89.7399 73.8518 89.5977 74.5494 89.5922 74.9992H94.0756C94.0756 74.9992 95.2136 75.0892 96.1865 73.3009C96.1865 73.3009 99.0427 68.4652 99.9589 66.2045C99.9589 66.2045 100.357 65.1587 99.7538 64.585L99.1736 63.5392C99.1109 62.8645 99.071 61.4361 99.4807 59.7944V59.7831L99.5263 59.6145L99.6971 59.0184L99.7084 59.0298C100.471 56.6482 101.763 54.5004 103.435 52.7121L103.907 52.729L104.01 53.19C102.445 55.2371 101.04 57.3426 100.369 59.7831C100.88 60.3688 101.393 60.8544 102.017 61.4446L102.017 61.4446C102.352 61.761 102.719 62.1075 103.134 62.5157C106.394 65.7434 105.927 70.3769 105.927 70.3769C105.927 72.1538 104.317 71.9625 104.317 71.9625H102.718C101.245 71.9625 101.262 73.4019 101.262 73.4019C100.118 73.4019 100.272 74.9992 100.272 74.9992H101.871V74.9427C101.871 74.9427 102.007 73.2558 103.475 73.2558H104.403L104.414 73.6606L103.492 73.7505C102.736 73.8856 102.599 74.5493 102.587 74.9991H107.85C107.85 74.9991 109.557 75.0663 109.557 73.3007C109.557 73.3007 109.233 67.3518 109.557 64.9676C109.558 64.9674 109.791 63.6179 108.733 63.438ZM82.7684 32.6154C83.679 30.5917 84.1282 28.4752 84.1282 26.3095C84.1282 25.3276 84.0372 24.3622 83.849 23.4403L83.6426 22.5893L83.5698 22.3493V22.3214C83.6452 22.5535 83.7702 22.9856 83.8844 23.5906C84.055 24.4936 84.1404 25.4348 84.1404 26.3869C84.1404 28.6796 83.6406 30.9287 82.641 33.0682L83.2871 32.9588C84.0672 32.9588 84.7436 33.4294 84.9875 34.1025C86.1151 31.5635 86.359 28.9752 86.359 27.2131C86.359 26.3486 86.304 25.484 86.1944 24.6468C86.1937 24.6448 86.1916 24.6264 86.1878 24.5937L86.1878 24.5936C86.1607 24.3604 86.0495 23.4018 85.7557 22.4853C85.4143 21.38 84.9144 20.7179 84.4085 20.7179C84.1039 20.7234 83.4272 20.8383 83.4212 21.7138L83.4396 21.971L83.5131 22.1657L83.4848 22.0929L83.4665 22.0547L83.4423 22.0166L83.412 21.9565L83.3878 21.9293L83.2238 21.5802L82.6715 20.5273C82.1252 19.5454 81.6031 18.8418 81.2753 18.6508L81.1417 18.5909L81.081 18.5744L80.6622 18.4872C80.1158 18.4872 79.6667 18.9127 79.6667 19.4309L79.782 19.8564L79.7941 19.9219L80.3951 21.0674L80.4058 21.0869C81.0034 22.1827 81.6212 23.3154 81.6212 25.2676C81.6212 26.2932 81.4512 27.4659 81.1175 28.8351C81.0204 29.2169 80.6014 30.3188 80.1097 31.4534L80.9596 31.2843C81.8336 31.2844 82.55 31.8299 82.7684 32.6154ZM67.3974 25.9231C66.3744 25.9231 65.5385 26.7544 65.5385 27.7849C65.5385 28.8096 66.3745 29.635 67.3974 29.641C68.4204 29.635 69.2564 28.8096 69.2564 27.7849C69.2565 26.7544 68.4204 25.9231 67.3974 25.9231ZM65.4638 56.8508C65.4638 56.8508 65.8389 56.4303 66.5548 56.4303L68.0777 56.3595C69.2482 56.2667 70.3903 56.0484 71.4872 55.7317C70.5268 54.2524 69.8279 52.4725 69.3052 50.5454C68.913 51.053 68.2823 51.3861 67.6232 51.3861C66.5662 51.3861 66.123 50.2668 65.8162 49.3278C65.6287 48.7593 65.4584 48.1411 65.2855 47.5133C64.683 45.3262 64.0487 43.024 62.5432 42.3071C61.475 41.7995 59.3782 40.9696 57.9348 40.7949C55.787 40.7949 55.8723 42.3289 55.8723 42.3289V42.7329L56.1223 42.8368L57.3951 42.4764H57.9406L57.9237 42.7275C56.7246 42.7275 56.6451 44.0269 56.6451 44.0269L56.6224 44.5782L56.8724 44.6165L58.185 44.2725H58.7135L58.7078 44.5236C57.3838 44.5236 57.4349 45.8066 57.4349 45.8066V46.2324L57.7475 46.3142L58.9748 46.0904L59.4636 46.0849C60.9523 46.1777 61.1796 46.7128 61.1796 46.7128C62.0661 48.0284 63.6912 56.141 63.6912 56.141C63.6912 56.7034 64.1572 57.1538 64.731 57.1538L65.4638 56.8508ZM83.3014 45.1764L83.2202 45.2564C83.1389 44.6701 82.6052 44.217 81.9613 44.217L81.8974 44.2224L82.025 44.0625L82.1179 43.9559L82.4776 43.5081L82.5007 43.4761L83.6555 42.1061L84.3631 41.28L84.3806 41.2694L84.4038 41.2426L84.5198 41.104V41.0988L85.2857 40.7949C85.8775 40.7949 86.359 41.2587 86.359 41.8343L86.1211 42.4846L86.0804 42.5379L85.8369 42.7831L84.5314 44.0037L84.4966 44.041L84.4212 44.1051L84.2877 44.233L84.1369 44.3716L83.9571 44.5474L83.7192 44.7713L83.5451 44.9312L83.5102 44.9686L83.3014 45.1764ZM80.7498 48.2308L80.8669 48.0954L80.984 47.9549L81.0308 47.9048L81.1302 47.7994L81.2533 47.659L81.3704 47.5336L81.4348 47.4634L81.5344 47.3531L81.6456 47.2427L82.2604 46.6308L82.4009 46.4903L82.4184 46.4703L82.4653 46.4251L82.4829 46.4101L82.641 45.9787L81.8448 45.2564L81.1656 45.5924L81.1537 45.6076L81.1011 45.6778L80.6503 46.2545L80.5976 46.3147L79.7427 47.5285L79.7193 47.5637L79.6667 47.644L79.7544 47.6339L80.7498 48.2308ZM84.6088 46.6864L84.5499 46.7436C84.5204 46.0915 84.0202 45.5597 83.3846 45.4969L83.6201 45.2566L83.7613 45.1079L83.8084 45.0621L83.985 44.8791L84.0792 44.7819L84.2439 44.6159L84.2793 44.5816L84.5265 44.3299L84.6678 44.1926L85.9272 42.9515L85.9862 42.8999L85.9921 42.8885L86.2275 42.654L86.3157 42.5739L86.8926 42.2821C87.0013 42.2821 87.1056 42.3004 87.2027 42.3342L87.2482 42.2821L87.293 42.2143L87.3266 42.1803L87.7184 41.677L87.7521 41.6431L87.9258 41.4055L88.189 41.038L88.3848 40.7553L88.4799 40.6139L88.5977 40.4329L88.861 39.9918C88.8615 39.9918 88.8651 39.9862 88.8716 39.9761L88.8717 39.976C88.9377 39.8736 89.3029 39.3077 89.8071 39.3077C90.3613 39.3077 90.8205 39.7882 90.8205 40.3764L90.5125 41.0775L90.4173 41.2019L90.3502 41.2924L90.0645 41.6769L89.2192 42.7571L89.04 42.9719L88.8888 43.1358L88.7599 43.2942L88.5304 43.5487L88.396 43.7071L88.3398 43.7692C88.3029 43.2586 88.0093 42.8211 87.5944 42.5955C87.751 42.7695 87.8462 43.0027 87.8462 43.2603L87.3985 44.1125L87.1162 44.3929L87.0927 44.4158L86.8454 44.6675L86.8101 44.696L86.7335 44.7704L86.4923 45.0049L86.3392 45.1421L86.1038 45.3653L85.9272 45.5255L85.686 45.7428L85.5152 45.8972L85.3504 46.0459L85.1856 46.1946L85.0797 46.2861L85.009 46.3433L84.7971 46.5263L84.6088 46.6864ZM79.5849 47.3381L79.5058 47.4872L78.4504 46.8132L78.1795 46.8463L78.2132 46.7635L78.5067 46.1779L78.5688 46.0508L78.8793 45.4762L78.9753 45.305L79.2914 44.7636L79.3478 44.6752L79.5849 44.2664L80.3185 43.7692L81.1539 44.6365L81.0296 45.0951L81.0071 45.1283L80.9619 45.2056L80.7927 45.4431L80.5217 45.8297L80.4879 45.8796L80.0589 46.5425L80.025 46.5922L79.6299 47.2607L79.5849 47.3381ZM86.0797 34.5265C86.7644 34.5265 87.3755 34.966 87.6019 35.5898C89.107 32.3944 89.3333 29.5895 89.3333 28.1845V27.6202C89.3333 26.0252 89.1522 24.8913 88.79 24.2457L87.9922 23.6923H87.9528C87.2849 23.6923 87.0755 24.186 86.9793 24.5603L86.968 24.5874C87.0415 25.1463 87.1208 26.0414 87.1208 27.1428C87.1208 29.0524 86.8548 31.8735 85.6154 34.597L86.0797 34.5265ZM76.7608 45.9957L76.7882 45.8865L76.9251 45.4498L77.0346 45.0894L76.9433 45.0511L77.0482 45.0457L77.1713 44.658L77.2032 44.5816L77.217 44.5325L77.363 44.112L77.3812 44.0739L77.5363 43.6425L77.5728 43.5333L77.6366 43.4023L78.2114 43.0256L78.9231 43.9155L78.8319 44.3086L78.8182 44.3414L78.695 44.5816L78.6768 44.6198L78.6585 44.6635L78.6082 44.7728L78.403 45.204L78.3848 45.2422L78.3301 45.3515L78.0746 45.9356L78.0061 46.1049L77.7917 46.6235L77.7781 46.6727L77.7553 46.7436L76.9615 46.1758L76.6923 46.2359L76.7015 46.1922L76.7243 46.1212L76.7608 45.9957ZM79.9935 38.5074L79.7543 38.9634L79.4353 39.5913L79.3157 39.8167L79.1463 40.1494L79.0267 40.3855L78.5582 41.346L78.4785 41.5124L78.3489 41.7807L78.1943 42.1134L78.1795 42.1456L78.4586 42.108C78.9868 42.108 79.4354 42.4784 79.5899 43.0256L79.6447 42.9236L79.7544 42.7358L79.8192 42.6285L80.2827 41.8451L80.3425 41.7538L80.4122 41.6465L80.8208 40.9811L81.5434 39.806L81.5536 39.7791L81.6582 39.6128L81.6881 39.5699L81.8974 38.9367C81.8974 38.3249 81.4489 37.8258 80.9106 37.8205C80.4372 37.8206 80.1081 38.3035 79.9935 38.5074ZM84.9238 36.3981C85.0811 36.1513 85.4876 35.5897 85.9917 35.5897C86.604 35.5897 87.1026 36.0936 87.1026 36.7131L87.0159 37.0542L87.0051 37.0911L86.9889 37.1277L86.9563 37.1855L86.9456 37.2327L86.7721 37.5529L86.7341 37.6106L86.6744 37.6945L86.1054 38.5973L86.0728 38.6342L86.0457 38.6762L85.9754 38.7863L85.8399 38.9806L85.8236 39.0016L85.7044 39.1747L85.6828 39.1957L85.6177 39.2797L85.5743 39.3426L85.5093 39.4319L85.4768 39.4739L85.4333 39.5316L85.4139 39.5571L85.8117 39.123L85.8242 39.0975L86.0247 38.8615L86.338 38.4667L87.0838 37.4923C87.1527 37.3949 87.4409 37.0769 88.0674 37.0769C88.7693 37.0769 89.3333 37.5693 89.3333 38.1641C89.3333 38.3025 89.2392 38.5948 88.7943 39.1282L88.669 39.3026L88.6439 39.3436L88.5814 39.4307L88.2807 39.8205L88.2179 39.9026L87.8481 40.3539L87.8169 40.3796L87.4033 40.8359L87.3782 40.8616L86.9145 41.3282L86.7014 41.5282L86.6889 41.5385C86.6764 40.7693 85.9245 40.1436 85.0097 40.1436L84.8718 40.1487L85.0128 39.9948C84.8967 39.3239 84.308 38.8072 83.6014 38.8072L83.3846 38.8283L83.6447 38.4293L83.6989 38.3612L83.829 38.1512L84.035 37.8362L84.3656 37.3219L84.8209 36.5817L84.8588 36.5135L84.9238 36.3981ZM89.6844 38.8538C90.5051 38.8538 91.1736 39.3561 91.3724 40.0513L92.1928 38.7662C92.2062 38.7428 93.5696 36.085 93.7949 33.848C93.7553 33.0652 93.3647 32.6213 92.7159 32.6154L91.6633 33.0593C91.5044 33.807 90.8958 36.2369 89.3333 38.8888L89.6844 38.8538ZM82.3276 34.1191C82.4716 33.887 82.8915 33.359 83.5243 33.359C84.2639 33.3647 84.8716 33.9509 84.8718 34.6647L84.4081 35.7904L84.3579 35.86L84.3014 35.9644L84.2702 36.0167C83.9193 36.5679 83.5495 37.1308 83.1298 37.7517L83.0797 37.8213L82.992 37.9432L82.5659 38.5641C82.3903 37.8155 81.6824 37.2469 80.8425 37.2469L80.4103 37.2991L80.8865 36.5099L81.6195 35.3028L81.6573 35.2507L81.7511 35.0883L81.8388 34.9374L81.889 34.8561L82.1207 34.4673L82.3026 34.1539L82.3276 34.1191ZM82.5111 39.735L83.2113 39.3077C83.7151 39.3077 84.1282 39.8053 84.1282 40.4202L83.967 41.0408L83.826 41.2457L82.8486 42.686L82.5362 43.1603L82.5161 43.1895L82.4758 43.2481L82.1029 43.8161L81.9216 44.1029L81.8663 44.1908L81.7402 44.3957L81.6597 44.5128C81.5387 43.9039 81.0753 43.4414 80.5311 43.4414L80.4103 43.4472L80.4203 43.4297L80.4404 43.3886L80.7579 42.8148L81.1911 42.0479L81.5387 41.4272L82.0829 40.4845L82.1534 40.3556L82.5111 39.735ZM88.3068 36.6587C88.9816 36.6587 89.5497 37.1394 89.7426 37.8205C90.7712 35.4798 91.157 33.4881 91.248 32.9158L91.2961 32.5782L91.3027 32.5295C91.3908 31.883 91.5641 30.6121 91.5641 29.6023L91.5532 29.2589C91.5103 28.286 91.1892 27.5591 90.7498 27.4389L90.5302 27.4103L89.764 27.9655V28.1543C89.764 29.7854 89.5177 33.0361 87.8461 36.7103L88.3068 36.6587ZM87.8482 44.7491L88.4112 44.5128L89.3333 45.3636L88.8782 46.146C87.914 46.8602 86.83 47.5587 85.6802 48.2308V48.2045L84.8718 47.2225L85.2072 46.9652L85.3867 46.8181L85.6802 46.5871L85.8658 46.4401L86.1353 46.2195L86.2431 46.1303L86.3988 46.0042L86.5905 45.8467L86.7342 45.7258L87.0097 45.4947L87.0457 45.4581L87.1535 45.374L87.3211 45.2217L87.5246 45.0431L87.5725 45.0011L87.8482 44.7491ZM85.0389 47.4872L84.6747 47.6747L84.5114 47.8287L84.4355 47.9225L83.0923 49.2691L83.0541 49.3025L82.6627 49.7179L82.641 49.7381L83.0598 50.4615C83.8101 49.9724 84.5225 49.4567 85.1912 48.9407L85.6154 48.2306L85.0389 47.4872ZM81.6195 50.5318L81.7376 50.4615L81.8974 50.6723L81.8418 50.8334L81.821 50.8457L81.7827 50.8663L81.7515 50.8871L81.2129 51.2051L81.1538 51.1638L81.2303 51.1762L81.3346 50.9697L81.3484 50.9449L81.4596 50.7589L81.4666 50.7383L81.5917 50.5649L81.6195 50.5318ZM83.7096 47.479L83.8308 47.3862L83.8638 47.3644L84.1282 46.7694L83.3901 46L82.8723 46.2183L82.8613 46.2346L82.8063 46.2947L82.7843 46.3166L82.5088 46.6331L82.3932 46.7641L82.3436 46.8241L82.2335 46.9496L82.1397 47.0588L82.1012 47.1079L82.0021 47.2225L81.969 47.2662L81.8148 47.4518L81.7102 47.5881L81.5504 47.7846L81.4623 47.8993L81.3081 48.1175L81.2255 48.2158L81.1538 48.325L81.8865 48.9744L81.8973 48.9526L81.947 48.9144L82.0131 48.8652L82.0792 48.7998L82.1123 48.7779L82.3106 48.6142L83.7096 47.479ZM80.1201 37.0769L80.2539 36.8105L80.2785 36.7627L80.6103 36.1393C81.0112 35.3828 81.3578 34.7275 81.6152 34.2107L81.6251 34.1787L81.6994 34.0349L81.8974 33.2303L81.897 33.2255C81.8884 33.124 81.7821 31.8718 80.7736 31.8718C80.0013 31.8718 79.6449 32.7136 79.6449 32.7189L79.3677 33.3636L79.2583 33.5911C78.9141 34.3067 78.5509 35.0618 78.1795 35.8995L78.6647 35.7982C79.3726 35.7983 79.9519 36.3364 80.1201 37.0769ZM76.2336 45.8507L76.1703 46L75.0563 45.5007L74.4615 45.6139C74.664 44.8312 74.9298 44.0073 75.2589 43.1627C75.2589 43.1524 75.5373 42.2821 76.3727 42.2821C76.9611 42.2821 77.4359 42.694 77.4359 43.1936L77.4106 43.3893L77.3979 43.4253L77.2143 43.7651L76.9803 44.208L76.917 44.3367L76.7145 44.759L76.6574 44.8773L76.5752 45.068L76.5372 45.1555L76.5055 45.2122L76.4234 45.3924L76.3789 45.5057L76.3474 45.583L76.3347 45.6086L76.2588 45.7889L76.2336 45.8507ZM81.3379 50.2799L81.6494 49.936L81.7345 49.8406L81.8974 49.4711L81.3876 48.9744L81.0407 49.108L81.0053 49.1528L80.7575 49.4839L80.6937 49.5731L80.6369 49.6878C80.1128 50.503 79.8012 51.2482 79.6667 51.8978V51.9487L80.5592 51.5858L80.5803 51.5284L80.6086 51.4647V51.433L80.6936 51.261L80.7077 51.21L80.8068 51.0317L80.8564 50.9425L80.9768 50.7578L81.1539 50.5094L81.1891 50.4711L81.3025 50.3247L81.3379 50.2799ZM75.7415 53.9882L75.7781 54.087L75.8268 54.1859L75.9487 54.4334L75.8939 54.7031L75.8816 54.8294L75.8756 54.9231C74.0348 53.3662 73.7423 49.862 73.7423 49.8233L73.7179 49.0972C73.7179 48.3766 73.7911 47.5954 73.9374 46.7592L73.974 46.5391L74.7297 46L75.5221 46.7592L75.51 46.8747L75.4978 46.9737V46.9847C75.1383 48.1565 74.9614 49.2512 74.9614 50.324L75.0102 51.3143L75.0224 51.3637L75.0895 51.8424L75.1015 51.8864L75.1259 52.0185L75.1382 52.0899L75.187 52.354L75.2418 52.5633L75.3333 52.8768L75.394 53.0801L75.51 53.4212L75.5221 53.4601L75.5831 53.6138L75.7294 53.9551L75.7415 53.9882ZM77.6102 42.282L77.985 41.4314L78.0002 41.3916L78.0458 41.3009L78.0864 41.2102L78.2586 40.836L78.2788 40.8077L78.3092 40.7283L78.5625 40.2009L78.5675 40.1896C78.7965 39.6986 79.0522 39.1809 79.3325 38.6136L79.3325 38.6135L79.3327 38.6132L79.3327 38.6131C79.4181 38.4402 79.5058 38.2627 79.5957 38.08L79.6667 37.6376C79.6667 36.9231 79.1702 36.3333 78.5574 36.3333C78.0558 36.3333 77.7317 36.77 77.5595 37.1272L77.5291 37.2066L77.5088 37.2351L77.4683 37.3485C76.8654 38.8116 76.3539 40.2009 75.9487 41.4825L76.435 41.3748C76.9618 41.3747 77.4177 41.7376 77.6102 42.282ZM80.0199 49.4422L79.9641 49.5355L79.6964 49.9916L79.5961 50.1681L79.4957 50.3792L79.4845 50.4036L79.4511 50.4723L79.4231 50.5459L79.3953 50.6146L79.1777 51.3405L79.161 51.4239V51.4435L79.1499 51.5367V51.571V51.5956V51.6299L79.1388 51.6446L78.3077 51.9487V51.8899L78.3022 51.8065H78.1795L78.3077 51.7722L78.3245 51.4337L78.33 51.3798L78.3413 51.3013L78.3468 51.2424L78.3803 51.0462L78.4025 50.953V50.9187L78.4249 50.801L78.4638 50.6538L78.4975 50.5312L78.5754 50.2565L78.6033 50.1878L78.6145 50.1388L78.726 49.8445L78.7372 49.8052L78.7652 49.7415L78.9045 49.408L78.938 49.3393L79.0941 49.0106L79.1165 48.9713L79.1388 48.9273L79.2949 48.633L79.3172 48.6035L79.3619 48.5152L79.3842 48.4662L79.3953 48.4514L79.8526 48.2308L80.4103 48.7555L80.3824 48.9321L80.3546 48.9615L80.2262 49.1479L80.0199 49.4422ZM78.1654 49.8274L78.2076 49.7348L78.2736 49.5805L78.3699 49.3747L78.394 49.3183L78.418 49.2668L78.5502 48.9839L78.6104 48.881L78.7967 48.521L78.899 48.3307L78.9231 48.1609L78.1774 47.4872L77.5762 47.7752L77.5342 47.8163L77.486 47.9193L77.3837 48.1609L77.3236 48.3101L77.0951 48.8965L77.023 49.1176L77.0168 49.1485L77.005 49.2051L76.9147 49.524L76.9101 49.544C77.0196 48.9716 77.1695 48.3858 77.3663 47.7638L77.3894 47.6968L77.4173 47.6188L77.4359 47.4348L76.8875 46.7436L76.3901 47.1784L76.3715 47.2565L76.3252 47.4571L76.2925 47.6132L76.274 47.6912L76.2554 47.8027L76.2461 47.8306L76.1997 48.0759L76.1903 48.1094L76.1718 48.2264L76.1253 48.4773L76.1067 48.6446L76.0695 48.8953L76.0416 49.0793L76.0137 49.3078L75.9906 49.5922L75.9812 49.7426L75.9626 50.0158L75.9534 50.1662V50.1941L75.9487 50.6511L75.9534 51.1194L75.9626 51.2475L75.9812 51.5988L75.9997 51.7492L76.0324 52.0782L76.0509 52.2286L76.1067 52.5742L76.1393 52.7581L76.1579 52.864L76.1997 53.0646L76.2461 53.2653L76.3252 53.5662L76.3763 53.7781L76.4692 54.068L76.5064 54.1795L76.9712 53.4105L76.8596 52.8139L76.8503 52.7581L76.84 52.6902L76.9447 52.6667L77.2395 52.5175L77.3056 52.4764H77.3116L77.3476 52.4608L77.3957 52.4454L77.7025 52.3426V52.0185V51.9877L77.7144 51.5917L77.7205 51.5556L77.7325 51.4888L77.7747 51.1596L77.7987 51.0413L77.8768 50.7173L77.9129 50.5783L78.003 50.2749L78.0271 50.2235L78.0633 50.1257L78.1654 49.8274ZM76.8396 52.6874L76.9447 52.6308L76.8906 52.4197L76.8546 52.2809L76.8305 52.1781L76.8065 52.0494L76.7945 51.9929L76.7644 51.823L76.7404 51.6842L76.7283 51.5865L76.7234 51.5466L76.7295 51.7268L76.7388 51.8495L76.7434 51.8941L76.7528 52.0001L76.7667 52.1227L76.7714 52.2008L76.7806 52.2788L76.8085 52.4962L76.8317 52.6356L76.8396 52.6874Z" fill="#31373B"/>
</svg>
