<svg width="169" height="93" viewBox="0 0 169 93" fill="none" xmlns="http://www.w3.org/2000/svg">
<g clip-path="url(#clip0_1268_285522)">
<path d="M28.5602 51.6466C28.5602 51.6466 37.879 41.5178 39.784 40.012C41.689 38.5062 49.9504 32.4684 50.3722 32.037C50.7941 31.6057 54.1024 28.7488 53.0193 25.8125C52.1708 23.5214 54.606 22.3367 57.7822 22.9837C60.9585 23.6307 63.5001 24.2777 65.1932 25.7884L66.8882 27.2971L67.5229 27.9441L73.0337 27.7816V28.537C72.3857 28.4257 69.3795 28.6443 68.5073 29.2904C67.1704 30.2817 67.3158 29.6685 67.5277 31.8242C67.7396 33.98 67.9505 40.8766 66.0455 45.1871C64.1405 49.4977 62.2858 53.1293 60.1167 54.5094C58.3405 55.4818 56.499 56.3253 54.606 57.0336L53.1228 59.8383C53.1228 59.8383 52.5946 61.5346 54.6601 64.3635L56.0853 67.1682L57.5675 69.5396C57.5675 69.5396 55.8734 69.1083 59.0488 69.1083H63.0735C63.0735 69.1083 64.1861 69.4603 62.7818 69.674C61.0089 69.9439 60.6383 70.0793 58.8112 70.2388C57.1248 70.3897 52.5917 72.207 51.9561 72.4487C51.3204 72.6905 51.4288 72.1209 51.4288 72.1209C51.4288 72.1209 54.7647 70.8858 55.4525 70.1866C55.6252 70.0078 55.7344 69.7756 55.7632 69.5266C55.7919 69.2776 55.7384 69.026 55.6112 68.8113C55.6112 68.8113 55.0297 67.3297 54.186 65.6595C53.4259 64.1643 51.8031 61.1323 51.8031 61.1323L50.9014 60.3789L50.795 57.5171C50.2545 57.7367 49.6822 57.8644 49.101 57.8953C47.7659 58.0584 46.4216 58.1302 45.0772 58.11C44.2287 58.11 44.0197 57.2473 44.8653 60.051C45.7109 62.8548 46.9831 66.085 47.4059 67.1633C47.8287 68.2417 53.9456 67.6759 53.9456 67.6759C53.9456 67.6759 54.9775 68.1595 54.1841 68.2407C52.7086 68.3916 51.843 68.3723 51.0867 68.4032C49.1029 68.4825 47.4069 68.673 47.4069 68.673C46.9617 68.6327 46.513 68.6779 46.0843 68.8065C44.8529 69.0097 43.6331 69.2799 42.4301 69.616C40.165 70.2108 40.8434 69.5348 42.9612 68.8887C43.9197 68.6462 44.8452 68.2844 45.7166 67.8113C45.7166 67.8113 46.7731 67.379 45.7166 65.4399C44.6601 63.5008 42.9612 59.1884 42.9612 59.1884C42.0603 58.9649 41.1297 58.8924 40.2059 58.9737C39.0933 59.1884 37.4781 59.3431 35.3336 59.8895C34.189 60.1735 33.0185 60.3355 31.841 60.3731C31.0734 60.4021 30.3144 60.5478 29.5892 60.8054C28.1098 61.2358 27.3792 61.9273 25.0628 62.7967C23.0523 63.5521 20.353 64.3606 17.9701 65.0076C15.7183 65.6169 14.4746 63.6594 18.7122 61.0733C23.2633 58.2976 24.7512 57.5171 28.5602 51.6466Z" fill="#31373B"/>
<path d="M63.2056 28.2081C63.38 28.4874 63.4416 28.8245 63.3775 29.149C63.3134 29.4734 63.1286 29.7601 62.8616 29.949C62.3372 30.2033 61.9201 29.5999 61.5856 28.8929C61.2512 28.1859 61.1315 27.6472 61.654 27.3909C61.9663 27.2973 62.302 27.3301 62.591 27.4823C62.8801 27.6346 63.1003 27.8946 63.2056 28.2081V28.2081Z" fill="white"/>
<path d="M71.1923 18H68.9681V18.647H71.1923V18Z" fill="#8F96A3"/>
<path d="M65.1562 18.1625H64.5215V18.4855H65.1562V18.1625Z" fill="#8F96A3"/>
<path d="M55.9457 18.1625H54.5157V18.648H55.9457V18.1625Z" fill="#8F96A3"/>
<path d="M31.4875 26.8918H28.3122V27.6994H31.4875V26.8918Z" fill="#8F96A3"/>
<path d="M33.1294 32.3881H32.1773V33.1956H33.1294V32.3881Z" fill="#8F96A3"/>
<path d="M45.6758 32.2256H34.3997V33.0331H45.6758V32.2256Z" fill="#8F96A3"/>
<path d="M45.0392 33.0341H39.9579V33.6811H45.0392V33.0341Z" fill="#8F96A3"/>
<path d="M48.2155 32.5505H47.2634V33.1966H48.2155V32.5505Z" fill="#8F96A3"/>
<path d="M17.8304 49.6853H11V50.3313H17.8304V49.6853Z" fill="#8F96A3"/>
<path d="M14.6513 50.3313H13.5406V50.8178H14.6513V50.3313Z" fill="#8F96A3"/>
<path d="M16.7169 50.3313H16.0803V50.9783H16.7169V50.3313Z" fill="#8F96A3"/>
<path d="M69.4451 40.7935H67.3804V41.2799H69.4451V40.7935Z" fill="#8F96A3"/>
<path d="M67.6977 45.3206H67.063V45.6436H67.6977V45.3206Z" fill="#8F96A3"/>
<path d="M70.397 45.1581H69.1267V45.6436H70.397V45.1581Z" fill="#8F96A3"/>
<path d="M85.6609 40.5913V22.3125H89.2524V37.5884H97.7949V40.5913H85.6609ZM112.264 40.5913L110.955 36.3359H103.544L102.233 40.5913H98.6928L104.542 22.3125H110.057L115.932 40.5913H112.264ZM104.414 33.5409H110.083L107.261 24.297L104.414 33.5409ZM133.248 40.5913H128.964L124.192 33.5148H121.601V40.5913H118.01V22.3125H126.014C127.097 22.2957 128.174 22.4768 129.195 22.8473C130.148 23.2141 130.97 23.8649 131.555 24.7148C132.21 25.6785 132.544 26.8316 132.505 28.0031C132.587 29.3483 132.143 30.6719 131.27 31.685C130.375 32.5938 129.213 33.1806 127.96 33.3562L133.248 40.5913ZM121.601 25.2371V30.773H125.578C126.449 30.8251 127.312 30.5767 128.028 30.0679C128.326 29.8204 128.562 29.5042 128.715 29.1454C128.869 28.7867 128.937 28.3957 128.912 28.005C128.937 27.6143 128.869 27.2234 128.715 26.8646C128.562 26.5058 128.326 26.1896 128.028 25.9421C127.312 25.4334 126.449 25.185 125.578 25.2371H121.601ZM151 40.5913H146.716L140.995 32.7836H139.123V40.5913H135.531V22.3125H139.123V29.9896H140.918L146.254 22.3125H150.435L143.765 31.1647L151 40.5913Z" fill="#31373B"/>
<path d="M86.325 57.403V48.957H87.9839V57.403H86.325ZM89.5136 57.403V51.0808H90.9958V52.1911C91.1916 51.7841 91.5032 51.4466 91.8901 51.2223C92.277 50.9981 92.7212 50.8976 93.165 50.9338C93.4612 50.9116 93.7585 50.9557 94.0361 51.0632C94.3137 51.1706 94.5648 51.3388 94.7716 51.5557C95.1645 52.0732 95.3566 52.7197 95.3113 53.372V57.403H93.7332V53.8672C93.7609 53.4477 93.6639 53.0295 93.4548 52.6669C93.3492 52.5275 93.2108 52.4174 93.0524 52.3467C92.894 52.2761 92.7206 52.2472 92.5483 52.2627C92.3442 52.2508 92.1402 52.289 91.9536 52.3739C91.7669 52.4589 91.603 52.5883 91.4757 52.7511C91.2089 53.1363 91.0774 53.6016 91.1023 54.0722V57.403H89.5136ZM96.0096 52.2869V51.0808H97.1831V50.3071C97.1537 50.0345 97.1836 49.7587 97.2706 49.4991C97.3576 49.2395 97.4996 49.0026 97.6866 48.8052C98.1421 48.4834 98.693 48.332 99.2458 48.3767C99.5785 48.3781 99.9109 48.3981 100.242 48.4367V49.6679C99.9805 49.644 99.7633 49.6321 99.5897 49.6321C99.4745 49.6201 99.358 49.6327 99.2478 49.669C99.1375 49.7053 99.0359 49.7645 98.9493 49.8429C98.8065 50.0342 98.7388 50.2728 98.7593 50.5122V51.0789H100.123V52.2859H98.7593V57.403H97.1831V52.2869H96.0096ZM101.415 56.6719C101.121 56.3457 100.894 55.9632 100.747 55.5467C100.601 55.1302 100.537 54.6881 100.56 54.2463C100.536 53.8055 100.599 53.3644 100.746 52.949C100.893 52.5337 101.121 52.1526 101.415 51.8284C101.723 51.5246 102.089 51.2886 102.49 51.135C102.891 50.9815 103.319 50.9136 103.747 50.9358C104.175 50.9133 104.602 50.9804 105.003 51.1329C105.404 51.2855 105.769 51.5203 106.077 51.8226C106.372 52.1468 106.599 52.5279 106.746 52.9432C106.893 53.3586 106.956 53.7997 106.932 54.2405C106.956 54.6812 106.893 55.1224 106.746 55.5377C106.599 55.9531 106.372 56.3342 106.077 56.6583C105.769 56.9612 105.404 57.1965 105.003 57.3496C104.602 57.5026 104.175 57.5702 103.747 57.5481C103.321 57.5704 102.894 57.5043 102.493 57.3537C102.092 57.2031 101.725 56.9711 101.415 56.6719V56.6719ZM102.577 52.7627C102.268 53.192 102.113 53.7159 102.138 54.2472C102.113 54.7786 102.268 55.3025 102.577 55.7318C102.714 55.9131 102.892 56.0586 103.096 56.1561C103.299 56.2537 103.523 56.3005 103.747 56.2927C103.975 56.3017 104.202 56.2549 104.408 56.1563C104.614 56.0576 104.795 55.9101 104.933 55.726C105.242 55.2967 105.397 54.7728 105.372 54.2414C105.397 53.7101 105.242 53.1862 104.933 52.7569C104.795 52.5728 104.614 52.4252 104.408 52.3266C104.202 52.228 103.975 52.1812 103.747 52.1902C103.522 52.1832 103.298 52.2311 103.095 52.3298C102.891 52.4285 102.714 52.5753 102.577 52.7579V52.7627ZM111.29 50.9532C111.53 50.9525 111.769 50.9851 112.001 51.0499V52.4619C111.691 52.4117 111.378 52.3816 111.063 52.372C110.853 52.3546 110.642 52.3882 110.448 52.4701C110.253 52.5519 110.08 52.6798 109.943 52.843C109.664 53.3008 109.537 53.8379 109.581 54.3749V57.403H107.982L107.994 51.0799H109.463V52.2985C109.583 51.9021 109.825 51.556 110.155 51.3123C110.484 51.0686 110.882 50.9405 111.29 50.9474V50.9532ZM112.972 57.403V51.0808H114.454V52.1669C114.623 51.7814 114.902 51.4572 115.256 51.2373C115.61 51.0173 116.021 50.9122 116.434 50.9358C116.843 50.8966 117.251 51.006 117.588 51.2445C117.924 51.483 118.167 51.8352 118.272 52.2385C118.433 51.8327 118.716 51.4886 119.079 51.2549C119.443 51.0211 119.869 50.9095 120.299 50.9358C120.571 50.9203 120.843 50.967 121.096 51.0725C121.348 51.1779 121.574 51.3393 121.757 51.5451C122.13 52.0346 122.315 52.6463 122.275 53.2646V57.403H120.689V53.6737C120.708 53.3115 120.619 52.9519 120.435 52.6418C120.351 52.5173 120.237 52.417 120.103 52.3504C119.97 52.2838 119.823 52.2533 119.674 52.2617C119.495 52.2559 119.317 52.2965 119.157 52.3799C118.998 52.4634 118.861 52.5867 118.761 52.7385C118.518 53.1377 118.403 53.6035 118.43 54.0722V57.403H116.836V53.6737C116.855 53.3115 116.767 52.9519 116.582 52.6418C116.498 52.5173 116.384 52.417 116.251 52.3504C116.117 52.2838 115.97 52.2533 115.822 52.2617C115.642 52.2563 115.463 52.2972 115.302 52.3805C115.142 52.4638 115.004 52.5869 114.903 52.7385C114.656 53.1361 114.537 53.6026 114.565 54.0722V57.403H112.972ZM123.286 55.6776C123.286 54.5113 124.155 53.8436 125.894 53.6747L127.518 53.5055V53.1902C127.525 53.042 127.502 52.8939 127.451 52.7549C127.4 52.6159 127.322 52.4889 127.221 52.3816C127.098 52.273 126.955 52.1903 126.801 52.1385C126.646 52.0867 126.483 52.0668 126.321 52.0799C126.012 52.0663 125.708 52.1509 125.449 52.3217C125.337 52.4028 125.245 52.5093 125.18 52.6328C125.115 52.7564 125.08 52.8935 125.076 53.0335H123.629C123.616 52.7215 123.681 52.4114 123.818 52.1319C123.955 51.8525 124.159 51.6127 124.411 51.4348C124.985 51.0799 125.649 50.9056 126.32 50.9338C127.063 50.8842 127.798 51.1164 128.382 51.5857C128.635 51.8362 128.83 52.1399 128.955 52.4756C129.08 52.8113 129.131 53.1707 129.105 53.5287V57.3972H127.624V56.257C127.415 56.6764 127.088 57.0231 126.685 57.253C126.282 57.4829 125.821 57.5856 125.36 57.5481C124.799 57.5874 124.246 57.4012 123.819 57.0297C123.642 56.8552 123.502 56.6445 123.411 56.4116C123.319 56.1786 123.276 55.9285 123.286 55.6776V55.6776ZM124.862 55.5935C124.858 55.707 124.879 55.8201 124.923 55.9244C124.967 56.0288 125.033 56.1219 125.117 56.197C125.332 56.3645 125.599 56.4461 125.869 56.4262C126.089 56.4351 126.309 56.3974 126.514 56.3153C126.719 56.2332 126.905 56.1086 127.061 55.9494C127.21 55.7945 127.328 55.6106 127.406 55.4085C127.484 55.2065 127.522 54.9905 127.517 54.7734V54.4958L126.092 54.6409C125.272 54.7208 124.862 55.0384 124.862 55.5935V55.5935ZM134.096 52.2878H132.627V55.2927C132.603 55.534 132.655 55.7766 132.775 55.9862C132.855 56.0593 132.951 56.1138 133.054 56.146C133.157 56.1783 133.266 56.1874 133.373 56.1728C133.615 56.1712 133.857 56.1512 134.096 56.1128V57.4156C133.755 57.4693 133.411 57.4975 133.065 57.4997C132.515 57.5476 131.967 57.3887 131.524 57.0529C131.343 56.8481 131.207 56.607 131.123 56.3452C131.039 56.0833 131.01 55.8065 131.038 55.5326V52.2869H129.746V51.105H130.683C130.803 51.1168 130.924 51.0823 131.021 51.0083C131.058 50.9659 131.086 50.9162 131.103 50.8623C131.12 50.8084 131.127 50.7514 131.122 50.695V49.6311H132.627V51.0818H134.096V52.2878ZM135.092 50.1921V48.6311H136.763V50.1921H135.092ZM135.14 57.403V51.0808H136.717V57.403H135.14ZM138.636 56.6719C138.342 56.3457 138.115 55.9632 137.969 55.5467C137.822 55.1302 137.758 54.6881 137.781 54.2463C137.757 53.8055 137.821 53.3644 137.967 52.949C138.114 52.5337 138.342 52.1526 138.636 51.8284C138.944 51.5261 139.31 51.2913 139.71 51.1387C140.111 50.9862 140.538 50.9191 140.966 50.9416C141.393 50.9191 141.82 50.9862 142.221 51.1387C142.622 51.2913 142.988 51.5261 143.295 51.8284C143.59 52.1526 143.817 52.5337 143.964 52.949C144.111 53.3644 144.174 53.8055 144.151 54.2463C144.174 54.687 144.111 55.1282 143.964 55.5435C143.817 55.9589 143.59 56.34 143.295 56.6641C142.988 56.9665 142.622 57.2013 142.221 57.3538C141.82 57.5064 141.393 57.5735 140.966 57.551C140.539 57.5726 140.113 57.5058 139.712 57.3547C139.312 57.2035 138.946 56.9712 138.636 56.6719V56.6719ZM139.798 52.7627C139.49 53.192 139.335 53.7159 139.359 54.2472C139.335 54.7786 139.49 55.3025 139.798 55.7318C139.935 55.9146 140.113 56.0614 140.317 56.16C140.521 56.2586 140.746 56.3061 140.971 56.2985C141.199 56.3075 141.426 56.2607 141.632 56.1621C141.838 56.0634 142.018 55.9159 142.157 55.7318C142.466 55.3025 142.621 54.7786 142.596 54.2472C142.621 53.7159 142.466 53.192 142.157 52.7627C142.018 52.5786 141.838 52.431 141.632 52.3324C141.426 52.2338 141.199 52.187 140.971 52.196C140.746 52.1878 140.522 52.2346 140.318 52.3323C140.114 52.4301 139.936 52.5759 139.798 52.7579V52.7627ZM145.203 57.4049V51.0808H146.686V52.1911C146.881 51.7841 147.193 51.4466 147.58 51.2223C147.967 50.9981 148.411 50.8976 148.855 50.9338C149.151 50.9116 149.448 50.9557 149.726 51.0632C150.003 51.1706 150.254 51.3388 150.461 51.5557C150.854 52.0732 151.046 52.7197 151.001 53.372V57.403H149.424V53.8672C149.452 53.4477 149.355 53.0295 149.145 52.6669C149.04 52.5275 148.901 52.4174 148.743 52.3467C148.585 52.2761 148.411 52.2472 148.239 52.2627C148.035 52.2512 147.831 52.2897 147.645 52.3748C147.459 52.46 147.295 52.5893 147.168 52.7521C146.899 53.1364 146.765 53.6018 146.788 54.0732V57.403L145.203 57.4049ZM85.6609 64.3838V62.9959H92.4533V64.3838H89.8927V71.4439H88.2329V64.3838H85.6609ZM92.0505 68.2775C92.0174 67.826 92.0779 67.3725 92.228 66.9463C92.3781 66.5202 92.6145 66.1308 92.9217 65.8035C93.5613 65.2263 94.3977 64.9273 95.2514 64.9708C97.2746 64.9708 98.2861 66.1694 98.2861 68.5666V68.7475H93.6505C93.6672 69.2214 93.855 69.6725 94.1778 70.0144C94.4939 70.3036 94.9086 70.4553 95.3332 70.4371C95.6139 70.4588 95.8944 70.3916 96.1363 70.2448C96.3781 70.098 96.5695 69.8787 96.6842 69.617L98.2044 69.7137C98.0629 70.2859 97.7105 70.7808 97.2201 71.0957C96.6514 71.4408 95.9966 71.6104 95.3351 71.5841C94.4604 71.6325 93.601 71.3364 92.935 70.7572C92.6232 70.4314 92.383 70.0418 92.2305 69.6143C92.078 69.1867 92.0166 68.731 92.0505 68.2775V68.2775ZM93.6505 67.7223H96.7165C96.7128 67.2887 96.5599 66.8702 96.2842 66.5395C96.1511 66.3976 95.9895 66.2865 95.8105 66.2135C95.6316 66.1406 95.4393 66.1077 95.2467 66.1169C94.8507 66.1022 94.4651 66.2475 94.174 66.5212C93.8681 66.8489 93.6831 67.2744 93.6505 67.7252V67.7223ZM99.0082 68.2775C98.9805 67.8346 99.0395 67.3906 99.1819 66.9712C99.3243 66.5518 99.5472 66.1654 99.8377 65.8345C100.136 65.5399 100.492 65.3112 100.881 65.1628C101.271 65.0143 101.686 64.9493 102.102 64.9718C102.813 64.9465 103.511 65.1629 104.088 65.5869C104.353 65.792 104.573 66.0516 104.733 66.3489C104.893 66.6461 104.99 66.9744 105.018 67.3123L103.498 67.4448C103.442 67.0938 103.268 66.7735 103.005 66.5395C102.75 66.3282 102.428 66.217 102.099 66.2262C101.885 66.2184 101.672 66.2637 101.479 66.3582C101.286 66.4528 101.118 66.5936 100.99 66.7687C100.694 67.2119 100.55 67.7424 100.582 68.2775C100.551 68.8135 100.697 69.3447 100.997 69.7862C101.25 70.0913 101.61 70.2841 102 70.3234C102.39 70.3628 102.78 70.2457 103.087 69.997C103.347 69.7489 103.518 69.4199 103.574 69.0618L105.102 69.1585C105.077 69.5071 104.981 69.8465 104.819 70.1551C104.658 70.4637 104.435 70.7346 104.166 70.9506C103.58 71.3887 102.865 71.6119 102.139 71.5841C101.719 71.6077 101.3 71.5438 100.905 71.3965C100.511 71.2491 100.15 71.0214 99.8453 70.7272C99.5518 70.3967 99.3264 70.0096 99.1827 69.5888C99.0389 69.168 98.9796 68.722 99.0082 68.2775V68.2775ZM106.061 71.439V62.5617H107.65V66.0366C107.868 65.6875 108.175 65.4046 108.538 65.2174C108.901 65.0303 109.306 64.9458 109.712 64.9728C110.009 64.9505 110.306 64.9947 110.584 65.1021C110.861 65.2096 111.112 65.3777 111.319 65.5946C111.712 66.1121 111.904 66.7586 111.859 67.4109V71.441H110.281V67.9071C110.309 67.4876 110.212 67.0694 110.003 66.7068C109.898 66.5674 109.759 66.4573 109.601 66.3866C109.442 66.316 109.269 66.2871 109.097 66.3026C108.893 66.2907 108.689 66.3288 108.502 66.4138C108.315 66.4988 108.151 66.6282 108.024 66.791C107.757 67.1762 107.626 67.6415 107.651 68.1121V71.4419L106.061 71.439ZM113.138 71.439V65.1198H114.62V66.2291C114.816 65.8221 115.127 65.4845 115.514 65.2603C115.901 65.036 116.345 64.9355 116.789 64.9718C117.085 64.9495 117.382 64.9937 117.66 65.1011C117.938 65.2086 118.189 65.3767 118.396 65.5937C118.788 66.1111 118.98 66.7576 118.935 67.4099V71.44H117.358V67.9071C117.386 67.4876 117.289 67.0694 117.08 66.7068C116.974 66.5674 116.836 66.4573 116.677 66.3866C116.519 66.316 116.345 66.2871 116.173 66.3026C115.969 66.2907 115.765 66.3288 115.578 66.4138C115.392 66.4988 115.228 66.6282 115.101 66.791C114.834 67.1762 114.702 67.6415 114.727 68.1121V71.4419L113.138 71.439ZM120.772 70.703C120.478 70.3769 120.251 69.9944 120.104 69.5779C119.957 69.1614 119.894 68.7193 119.917 68.2775C119.893 67.8367 119.956 67.3955 120.103 66.9802C120.25 66.5649 120.477 66.1838 120.772 65.8596C121.418 65.2886 122.244 64.9742 123.1 64.9742C123.955 64.9742 124.782 65.2886 125.427 65.8596C125.722 66.1838 125.949 66.5649 126.096 66.9802C126.243 67.3955 126.306 67.8367 126.283 68.2775C126.306 68.7182 126.243 69.1594 126.096 69.5747C125.949 69.9901 125.722 70.3711 125.427 70.6953C125.119 70.9977 124.754 71.2324 124.353 71.385C123.952 71.5376 123.525 71.6047 123.098 71.5822C122.672 71.6035 122.247 71.5368 121.847 71.3862C121.448 71.2356 121.082 71.0042 120.773 70.7059L120.772 70.703ZM121.934 66.7939C121.626 67.2231 121.471 67.7466 121.496 68.2775C121.471 68.8088 121.626 69.3327 121.935 69.762C122.078 69.9394 122.258 70.0823 122.462 70.1804C122.666 70.2785 122.889 70.3294 123.114 70.3294C123.34 70.3294 123.563 70.2785 123.767 70.1804C123.971 70.0823 124.151 69.9394 124.294 69.762C124.602 69.3327 124.757 68.8088 124.733 68.2775C124.757 67.7461 124.602 67.2223 124.294 66.7929C124.151 66.6155 123.971 66.4726 123.767 66.3745C123.563 66.2764 123.34 66.2256 123.114 66.2256C122.889 66.2256 122.666 66.2764 122.462 66.3745C122.258 66.4726 122.078 66.6155 121.935 66.7929L121.934 66.7939ZM127.339 62.5617H128.926V71.4429H127.339V62.5617ZM130.826 70.7059C130.532 70.3798 130.305 69.9973 130.159 69.5808C130.012 69.1643 129.948 68.7222 129.971 68.2804C129.947 67.8396 130.01 67.3984 130.157 66.9831C130.304 66.5678 130.532 66.1867 130.826 65.8625C131.472 65.2915 132.298 64.9771 133.154 64.9771C134.009 64.9771 134.836 65.2915 135.482 65.8625C135.776 66.1867 136.003 66.5678 136.15 66.9831C136.297 67.3984 136.361 67.8396 136.337 68.2804C136.361 68.7211 136.297 69.1623 136.15 69.5776C136.003 69.993 135.776 70.374 135.482 70.6982C135.174 71.0006 134.808 71.2353 134.407 71.3879C134.007 71.5405 133.579 71.6076 133.152 71.5851C132.726 71.6061 132.3 71.5391 131.901 71.388C131.501 71.2369 131.135 71.0049 130.826 70.7059V70.7059ZM131.988 66.7968C131.68 67.2249 131.525 67.7473 131.548 68.2775C131.524 68.8088 131.679 69.3327 131.987 69.762C132.13 69.9394 132.31 70.0823 132.514 70.1804C132.718 70.2785 132.941 70.3294 133.167 70.3294C133.392 70.3294 133.615 70.2785 133.819 70.1804C134.023 70.0823 134.203 69.9394 134.346 69.762C134.655 69.3327 134.81 68.8088 134.785 68.2775C134.81 67.7461 134.655 67.2223 134.346 66.7929C134.203 66.6155 134.023 66.4726 133.819 66.3745C133.615 66.2764 133.392 66.2256 133.167 66.2256C132.941 66.2256 132.718 66.2764 132.514 66.3745C132.31 66.4726 132.13 66.6155 131.987 66.7929L131.988 66.7968ZM137.856 70.4526C137.327 69.8088 137.056 68.986 137.096 68.1479C137.056 67.3097 137.327 66.487 137.856 65.8432C138.095 65.5616 138.392 65.3375 138.726 65.187C139.06 65.0365 139.423 64.9633 139.789 64.9728C140.201 64.9525 140.611 65.0525 140.969 65.261C141.328 65.4695 141.621 65.7778 141.813 66.1498V65.1198H143.283V70.7059C143.363 71.609 143.1 72.509 142.548 73.2205C142.242 73.4999 141.884 73.7127 141.494 73.8457C141.105 73.9788 140.693 74.0293 140.284 73.9942C139.574 74.033 138.871 73.8432 138.274 73.4516C138.026 73.2635 137.826 73.0173 137.691 72.7338C137.555 72.4503 137.489 72.1379 137.498 71.823H138.956C138.962 71.9624 138.998 72.0987 139.063 72.2217C139.127 72.3447 139.219 72.4511 139.33 72.5329C139.612 72.7176 139.945 72.8063 140.28 72.7863C140.478 72.8052 140.678 72.7781 140.865 72.7071C141.052 72.6361 141.22 72.523 141.358 72.3762C141.607 72.0082 141.724 71.5643 141.69 71.1189V70.3085C141.488 70.6342 141.205 70.8996 140.87 71.0777C140.535 71.2557 140.159 71.34 139.781 71.322C139.417 71.3303 139.056 71.2566 138.723 71.1063C138.391 70.956 138.095 70.7328 137.857 70.4526H137.856ZM139.112 66.7726C138.804 67.1743 138.648 67.6756 138.673 68.1846C138.647 68.6889 138.8 69.186 139.105 69.5841C139.244 69.7529 139.419 69.8873 139.617 69.9771C139.814 70.0669 140.029 70.1098 140.246 70.1025C140.462 70.111 140.677 70.0687 140.875 69.9788C141.073 69.8889 141.248 69.7539 141.386 69.5841C141.687 69.1844 141.839 68.688 141.812 68.1846C141.837 67.6749 141.684 67.1728 141.38 66.7668C141.241 66.5981 141.067 66.4626 140.87 66.3698C140.674 66.277 140.46 66.2292 140.244 66.2298C140.027 66.2303 139.814 66.2792 139.618 66.373C139.422 66.4668 139.249 66.6032 139.11 66.7726H139.112ZM148.914 65.1198H150.597L148.546 71.9526C148.426 72.5696 148.119 73.133 147.669 73.5638C147.182 73.8908 146.603 74.0455 146.021 74.0039C145.736 74.0034 145.45 73.9873 145.166 73.9555V72.7215C145.514 72.7376 145.763 72.7456 145.913 72.7456C146.184 72.7646 146.454 72.6948 146.684 72.5464C146.903 72.3345 147.052 72.0583 147.11 71.7563L147.193 71.4429H146.256L144.089 65.1198H145.799L147.53 70.7785L148.914 65.1198Z" fill="#4D5565"/>
</g>
<defs>
<clipPath id="clip0_1268_285522">
<rect width="148" height="56" fill="white" transform="translate(11 18)"/>
</clipPath>
</defs>
</svg>
