<svg width="169" height="93" viewBox="0 0 169 93" fill="none" xmlns="http://www.w3.org/2000/svg">
<path d="M74.3754 44.4152C71.9328 43.84 69.8225 43.3424 69.8225 41.6413C69.8225 39.3603 72.6323 39.1138 73.8403 39.1138C75.515 39.1138 76.4671 39.3441 77.7144 39.91C78.3202 39.4645 81.0813 37.4312 81.0813 37.4312C79.2618 36.2728 76.5285 35.3666 73.8704 35.3666C67.5363 35.3666 65.279 38.7331 65.279 41.8831C65.279 46.4195 69.2272 47.365 72.7099 48.1982C75.1572 48.7838 77.2697 49.2895 77.2697 51.0185C77.2697 51.9061 76.7404 53.3943 73.1929 53.3943C70.8383 53.3943 68.259 52.568 66.4279 51.2337L64.8887 54.7518C66.7545 56.2053 69.9905 57.1415 73.1639 57.1415C78.4186 57.1415 81.8144 54.5955 81.8144 50.6551C81.8144 46.1673 77.8627 45.2368 74.3754 44.4152Z" fill="#31373B"/>
<path d="M101.059 45.9231L100.841 45.8514L101.043 45.7426C102.776 44.8029 103.731 43.1735 103.731 41.1564C103.731 37.7599 100.849 35.7324 96.0231 35.7324H86.0464V56.7781H96.6126C101.868 56.7781 104.763 54.7553 104.763 51.081C104.762 48.579 103.412 46.6996 101.059 45.9231ZM90.5912 39.2354H95.4336C98.4865 39.2354 99.127 40.6414 99.127 41.8079C99.127 43.501 97.8495 44.3805 95.4336 44.3805H90.5912V39.2354V39.2354ZM90.5912 44.3805H95.4336H90.5912ZM96.2582 53.2728H90.5912V47.8847H96.2582C98.8456 47.8847 100.158 48.7815 100.158 50.5787C100.158 52.3817 98.8826 53.2728 96.2582 53.2728Z" fill="#31373B"/>
<path d="M120.161 39.2354L124.919 35.7312H108.994V56.777H124.919V53.2728H113.538V47.8847H123.246V44.3805H113.538V39.2354H120.161Z" fill="#31373B"/>
<path d="M147.115 56.777L142.488 49.9399C145.218 48.7503 146.792 46.4045 146.792 43.2626C146.792 38.6174 143.355 35.7312 137.822 35.7312H129.152V56.777H133.697V50.816H137.822C137.952 50.816 138.079 50.8125 138.207 50.809L142.245 56.777H147.115ZM133.696 39.2354H137.724C140.635 39.2354 142.239 40.6692 142.239 43.273C142.239 45.8768 140.635 47.3107 137.724 47.3107H133.696V39.2354Z" fill="#31373B"/>
<path d="M36.5142 46.0067L29.8474 41.8306V46.8544L36.5142 51.0305L52.4729 39.2793C51.9085 38.0355 51.2015 36.8693 50.3739 35.8004L36.5142 46.0067Z" fill="#31373B"/>
<path d="M54.0284 46.5C54.0284 45.4299 53.9322 44.3818 53.7479 43.365L49.9775 46.141C49.981 46.2603 49.9822 46.3796 49.9822 46.5C49.9822 53.9199 43.9401 59.9571 36.5142 59.9571C29.0882 59.9571 23.0462 53.9199 23.0462 46.5C23.0462 39.0801 29.0882 33.0429 36.5142 33.0429C39.3283 33.0429 41.9442 33.9103 44.107 35.3915L47.5134 32.8831C44.5069 30.4557 40.6809 29 36.5142 29C26.8409 29 19 36.8345 19 46.5C19 56.1655 26.8409 64 36.5142 64C46.1875 64 54.0284 56.1643 54.0284 46.5Z" fill="#31373B"/>
</svg>
